<?xml version="1.0" standalone="no"?><svg xmlns:xlink="http://www.w3.org/1999/xlink" xmlns="http://www.w3.org/2000/svg" viewBox="0 0 1000 1333.3333333333333" preserveAspectRatio="xMaxYMax slice"><g transform="scale(2.0768431983385254)"><rect x="0" y="0" width="481.5" height="642" fill="#ffffff"/><rect x="0" y="0" width="32.1" height="32.1" fill="#8d9aff"/><path d="M 0 0 A 32.1 32.1 0 0 1  32.1 32.1 L 0 0 A 32.1 32.1 0 0 0 32.1 32.1" fill="#d8ddff"/><rect x="32.1" y="0" width="32.1" height="32.1" fill="#fcfcfe"/><rect x="32.1" y="0" width="32.1" height="32.1" fill="#f0f2f9"/><rect x="64.2" y="0" width="32.1" height="32.1" fill="#c9d0ff"/><rect x="64.2" y="0" width="32.1" height="32.1" fill="#8d9aff"/><rect x="96.3" y="0" width="32.1" height="32.1" fill="#99a4d4"/><path d="M 96.3 32.1 A 32.1 32.1 0 0 1  128.4 0 L 128.4 32.1" fill="#bac2ff"/><rect x="128.4" y="0" width="32.1" height="32.1" fill="#ebeef7"/><path d="M 128.4 32.1 A 32.1 32.1 0 0 1  160.5 0 L 128.4 32.1 A 32.1 32.1 0 0 0 160.5 0" fill="#e2e6ff"/><rect x="160.5" y="0" width="32.1" height="32.1" fill="#ccd2ff"/><rect x="160.5" y="0" width="32.1" height="32.1" fill="#475bb1"/><rect x="192.6" y="0" width="32.1" height="32.1" fill="#adb6ff"/><path d="M 192.6 0 A 32.1 32.1 0 0 0 224.7 32.1 L 224.7 0" fill="#fefeff"/><rect x="224.7" y="0" width="32.1" height="32.1" fill="#aeb6dc"/><rect x="224.7" y="0" width="32.1" height="32.1" fill="#fcfdff"/><rect x="256.8" y="0" width="32.1" height="32.1" fill="#d2d7ec"/><polygon points="256.8,0 288.90000000000003,0 288.90000000000003,32.1" fill="#7888ff"/><rect x="288.9" y="0" width="32.1" height="32.1" fill="#4d60b3"/><polygon points="288.9,0 321,0 321,32.1" fill="#98a4ff"/><rect x="321" y="0" width="32.1" height="32.1" fill="#edeff7"/><path d="M 321 32.1 A 32.1 32.1 0 0 0 353.1 0 L 321 0" fill="#95a0d2"/><rect x="353.1" y="0" width="32.1" height="32.1" fill="#7e8eff"/><rect x="353.1" y="0" width="32.1" height="32.1" fill="#e6e8f4"/><rect x="385.2" y="0" width="32.1" height="32.1" fill="#8291ff"/><path d="M 385.2 32.1 A 32.1 32.1 0 0 1  417.3 0 L 417.3 32.1" fill="#f6f7ff"/><rect x="417.3" y="0" width="32.1" height="32.1" fill="#a3add8"/><rect x="417.3" y="0" width="32.1" height="32.1" fill="#adb6ff"/><rect x="449.4" y="0" width="32.1" height="32.1" fill="#b4bdff"/><rect x="449.4" y="0" width="32.1" height="32.1" fill="#9faaff"/><rect x="0" y="32.1" width="32.1" height="32.1" fill="#5567b7"/><path d="M 0 32.1 A 32.1 32.1 0 0 0 32.1 64.2 L 32.1 32.1" fill="#d2d7ec"/><rect x="32.1" y="32.1" width="32.1" height="32.1" fill="#d6daff"/><rect x="32.1" y="32.1" width="32.1" height="32.1" fill="#8693cc"/><rect x="64.2" y="32.1" width="32.1" height="32.1" fill="#e3e6ff"/><path d="M 64.2 32.1 A 32.1 32.1 0 0 1 96.30000000000001 64.2 L 64.2 64.2" fill="#a6b0d9"/><rect x="96.3" y="32.1" width="32.1" height="32.1" fill="#98a4ff"/><path d="M 96.3 32.1 A 32.1 32.1 0 0 1  128.4 64.2 L 96.3 32.1 A 32.1 32.1 0 0 0 128.4 64.2" fill="#bbc3ff"/><rect x="128.4" y="32.1" width="32.1" height="32.1" fill="#8795ff"/><path d="M 128.4 32.1 A 32.1 32.1 0 0 1 160.5 64.2 L 128.4 64.2" fill="#9faaff"/><rect x="160.5" y="32.1" width="32.1" height="32.1" fill="#4358af"/><rect x="160.5" y="32.1" width="32.1" height="32.1" fill="#d9deff"/><rect x="192.6" y="32.1" width="32.1" height="32.1" fill="#6172bc"/><rect x="192.6" y="32.1" width="32.1" height="32.1" fill="#485cb1"/><rect x="224.7" y="32.1" width="32.1" height="32.1" fill="#b4bdff"/><polygon points="256.8,32.1 256.8,64.2 224.7,64.2" fill="#8c98ce"/><rect x="256.8" y="32.1" width="32.1" height="32.1" fill="#a8b2ff"/><polygon points="256.8,32.1 288.90000000000003,32.1 256.8,64.2" fill="#8491cb"/><rect x="288.9" y="32.1" width="32.1" height="32.1" fill="#f8f8fc"/><polygon points="288.9,32.1 321,32.1 288.9,64.2" fill="#adb6dc"/><rect x="321" y="32.1" width="32.1" height="32.1" fill="#b7bfff"/><path d="M 321 64.2 A 32.1 32.1 0 0 0 353.1 32.1 L 321 32.1" fill="#4559b0"/><rect x="353.1" y="32.1" width="32.1" height="32.1" fill="#fafbff"/><path d="M 353.1 64.2 A 32.1 32.1 0 0 1  385.20000000000005 32.1 L 385.20000000000005 64.2" fill="#8794cc"/><rect x="385.2" y="32.1" width="32.1" height="32.1" fill="#bac1e2"/><rect x="385.2" y="32.1" width="32.1" height="32.1" fill="#e5e8f4"/><rect x="417.3" y="32.1" width="32.1" height="32.1" fill="#8593ff"/><polygon points="417.3,32.1 449.40000000000003,64.2 417.3,64.2" fill="#99a5ff"/><rect x="449.4" y="32.1" width="32.1" height="32.1" fill="#a8b2ff"/><rect x="449.4" y="32.1" width="32.1" height="32.1" fill="#d6daed"/><rect x="0" y="64.2" width="32.1" height="32.1" fill="#5264b5"/><polygon points="0,64.2 32.1,96.30000000000001 0,96.30000000000001" fill="#7c8cff"/><rect x="32.1" y="64.2" width="32.1" height="32.1" fill="#576ab8"/><polygon points="64.2,64.2 64.2,96.30000000000001 32.1,96.30000000000001" fill="#5d6fba"/><rect x="64.2" y="64.2" width="32.1" height="32.1" fill="#7e8dff"/><polygon points="96.30000000000001,64.2 96.30000000000001,96.30000000000001 64.2,96.30000000000001" fill="#707fc2"/><rect x="96.3" y="64.2" width="32.1" height="32.1" fill="#acb5dc"/><path d="M 96.3 64.2 A 32.1 32.1 0 0 1  128.4 96.30000000000001 L 96.3 64.2 A 32.1 32.1 0 0 0 128.4 96.30000000000001" fill="#5669b7"/><rect x="128.4" y="64.2" width="32.1" height="32.1" fill="#eef0ff"/><rect x="128.4" y="64.2" width="32.1" height="32.1" fill="#b3bcff"/><rect x="160.5" y="64.2" width="32.1" height="32.1" fill="#c6ccff"/><rect x="160.5" y="64.2" width="32.1" height="32.1" fill="#d1d6ec"/><rect x="192.6" y="64.2" width="32.1" height="32.1" fill="#dadeef"/><polygon points="224.7,64.2 224.7,96.30000000000001 192.6,96.30000000000001" fill="#d8ddff"/><rect x="224.7" y="64.2" width="32.1" height="32.1" fill="#4c60b3"/><path d="M 224.7 96.30000000000001 A 32.1 32.1 0 0 1  256.8 64.2 L 256.8 96.30000000000001" fill="#8e9bff"/><rect x="256.8" y="64.2" width="32.1" height="32.1" fill="#5b6cb9"/><polygon points="256.8,64.2 288.90000000000003,64.2 288.90000000000003,96.30000000000001" fill="#b4bddf"/><rect x="288.9" y="64.2" width="32.1" height="32.1" fill="#c8cee8"/><polygon points="288.9,64.2 321,64.2 321,96.30000000000001" fill="#f2f4ff"/><rect x="321" y="64.2" width="32.1" height="32.1" fill="#e9ebf5"/><polygon points="321,64.2 353.1,64.2 353.1,96.30000000000001" fill="#4357af"/><rect x="353.1" y="64.2" width="32.1" height="32.1" fill="#ced3ea"/><rect x="353.1" y="64.2" width="32.1" height="32.1" fill="#97a2d3"/><rect x="385.2" y="64.2" width="32.1" height="32.1" fill="#fbfbff"/><polygon points="385.2,64.2 417.3,64.2 417.3,96.30000000000001" fill="#c1c8ff"/><rect x="417.3" y="64.2" width="32.1" height="32.1" fill="#6172bc"/><path d="M 417.3 96.30000000000001 A 32.1 32.1 0 0 0 449.40000000000003 64.2 L 417.3 64.2" fill="#c0c7e4"/><rect x="449.4" y="64.2" width="32.1" height="32.1" fill="#5a6cb9"/><polygon points="481.5,64.2 481.5,96.30000000000001 449.4,96.30000000000001" fill="#8e9acf"/><rect x="0" y="96.3" width="32.1" height="32.1" fill="#d3d8ff"/><path d="M 0 128.4 A 32.1 32.1 0 0 1  32.1 96.3 L 0 128.4 A 32.1 32.1 0 0 0 32.1 96.3" fill="#a0abd7"/><rect x="32.1" y="96.3" width="32.1" height="32.1" fill="#8f9cff"/><polygon points="32.1,96.3 64.2,96.3 64.2,128.4" fill="#96a2ff"/><rect x="64.2" y="96.3" width="32.1" height="32.1" fill="#97a3ff"/><rect x="64.2" y="96.3" width="32.1" height="32.1" fill="#e5e8ff"/><rect x="96.3" y="96.3" width="32.1" height="32.1" fill="#8392ff"/><rect x="96.3" y="96.3" width="32.1" height="32.1" fill="#c9cfff"/><rect x="128.4" y="96.3" width="32.1" height="32.1" fill="#8794cc"/><path d="M 128.4 96.3 A 32.1 32.1 0 0 1  160.5 128.4 L 128.4 96.3 A 32.1 32.1 0 0 0 160.5 128.4" fill="#6f7fc2"/><rect x="160.5" y="96.3" width="32.1" height="32.1" fill="#8e9bff"/><polygon points="160.5,96.3 192.6,128.4 160.5,128.4" fill="#4358af"/><rect x="192.6" y="96.3" width="32.1" height="32.1" fill="#6878bf"/><path d="M 192.6 128.4 A 32.1 32.1 0 0 1  224.7 96.3 L 192.6 128.4 A 32.1 32.1 0 0 0 224.7 96.3" fill="#3f54ae"/><rect x="224.7" y="96.3" width="32.1" height="32.1" fill="#dbe0ff"/><path d="M 224.7 96.3 A 32.1 32.1 0 0 0 256.8 128.4 L 256.8 96.3" fill="#8c99ce"/><rect x="256.8" y="96.3" width="32.1" height="32.1" fill="#4055ae"/><polygon points="256.8,96.3 288.90000000000003,96.3 288.90000000000003,128.4" fill="#98a4ff"/><rect x="288.9" y="96.3" width="32.1" height="32.1" fill="#f7f8ff"/><polygon points="288.9,96.3 321,128.4 288.9,128.4" fill="#cad0ff"/><rect x="321" y="96.3" width="32.1" height="32.1" fill="#fefeff"/><polygon points="321,96.3 353.1,96.3 321,128.4" fill="#b4bcdf"/><rect x="353.1" y="96.3" width="32.1" height="32.1" fill="#465ab0"/><rect x="353.1" y="96.3" width="32.1" height="32.1" fill="#b4bcff"/><rect x="385.2" y="96.3" width="32.1" height="32.1" fill="#a9b3ff"/><rect x="385.2" y="96.3" width="32.1" height="32.1" fill="#b9c1ff"/><rect x="417.3" y="96.3" width="32.1" height="32.1" fill="#8c9aff"/><path d="M 417.3 128.4 A 32.1 32.1 0 0 1  449.40000000000003 96.3 L 449.40000000000003 128.4" fill="#96a2ff"/><rect x="449.4" y="96.3" width="32.1" height="32.1" fill="#aeb8ff"/><polygon points="481.5,96.3 481.5,128.4 449.4,128.4" fill="#8996ff"/><rect x="0" y="128.4" width="32.1" height="32.1" fill="#4054ae"/><rect x="0" y="128.4" width="32.1" height="32.1" fill="#8290ff"/><rect x="32.1" y="128.4" width="32.1" height="32.1" fill="#ced4ff"/><rect x="32.1" y="128.4" width="32.1" height="32.1" fill="#e9ecf6"/><rect x="64.2" y="128.4" width="32.1" height="32.1" fill="#7e8dff"/><path d="M 64.2 128.4 A 32.1 32.1 0 0 0 96.30000000000001 160.5 L 96.30000000000001 128.4" fill="#c3caff"/><rect x="96.3" y="128.4" width="32.1" height="32.1" fill="#e7eaf5"/><path d="M 96.3 128.4 A 32.1 32.1 0 0 1  128.4 160.5 L 96.3 128.4 A 32.1 32.1 0 0 0 128.4 160.5" fill="#b2bade"/><rect x="128.4" y="128.4" width="32.1" height="32.1" fill="#c4cbff"/><path d="M 128.4 128.4 A 32.1 32.1 0 0 1 160.5 160.5 L 128.4 160.5" fill="#edefff"/><rect x="160.5" y="128.4" width="32.1" height="32.1" fill="#cdd3ff"/><path d="M 160.5 160.5 A 32.1 32.1 0 0 1  192.6 128.4 L 192.6 160.5" fill="#8491cb"/><rect x="192.6" y="128.4" width="32.1" height="32.1" fill="#8996cd"/><polygon points="192.6,128.4 224.7,128.4 224.7,160.5" fill="#a1abd7"/><rect x="224.7" y="128.4" width="32.1" height="32.1" fill="#7e8dff"/><rect x="224.7" y="128.4" width="32.1" height="32.1" fill="#475bb1"/><rect x="256.8" y="128.4" width="32.1" height="32.1" fill="#b7c0ff"/><rect x="256.8" y="128.4" width="32.1" height="32.1" fill="#bbc2e2"/><rect x="288.9" y="128.4" width="32.1" height="32.1" fill="#dde0f0"/><polygon points="288.9,128.4 321,128.4 288.9,160.5" fill="#bac2e2"/><rect x="321" y="128.4" width="32.1" height="32.1" fill="#e6e9ff"/><polygon points="321,128.4 353.1,160.5 321,160.5" fill="#a3add8"/><rect x="353.1" y="128.4" width="32.1" height="32.1" fill="#96a2d3"/><path d="M 353.1 160.5 A 32.1 32.1 0 0 0 385.20000000000005 128.4 L 353.1 128.4" fill="#a9b3ff"/><rect x="385.2" y="128.4" width="32.1" height="32.1" fill="#95a0d2"/><rect x="385.2" y="128.4" width="32.1" height="32.1" fill="#dce0f0"/><rect x="417.3" y="128.4" width="32.1" height="32.1" fill="#dde0f0"/><path d="M 417.3 160.5 A 32.1 32.1 0 0 0 449.40000000000003 128.4 L 417.3 128.4" fill="#6d7dc1"/><rect x="449.4" y="128.4" width="32.1" height="32.1" fill="#7f8eff"/><polygon points="449.4,128.4 481.5,160.5 449.4,160.5" fill="#7382c3"/><rect x="0" y="160.5" width="32.1" height="32.1" fill="#ced4ea"/><path d="M 0 160.5 A 32.1 32.1 0 0 1  32.1 192.6 L 0 160.5 A 32.1 32.1 0 0 0 32.1 192.6" fill="#b8c0ff"/><rect x="32.1" y="160.5" width="32.1" height="32.1" fill="#8c98ce"/><path d="M 32.1 192.6 A 32.1 32.1 0 0 1  64.2 160.5 L 32.1 192.6 A 32.1 32.1 0 0 0 64.2 160.5" fill="#a5b0ff"/><rect x="64.2" y="160.5" width="32.1" height="32.1" fill="#eaedff"/><rect x="64.2" y="160.5" width="32.1" height="32.1" fill="#afb7dd"/><rect x="96.3" y="160.5" width="32.1" height="32.1" fill="#cfd4ea"/><polygon points="96.3,160.5 128.4,160.5 96.3,192.6" fill="#e2e5f3"/><rect x="128.4" y="160.5" width="32.1" height="32.1" fill="#a1abd7"/><path d="M 128.4 192.6 A 32.1 32.1 0 0 0 160.5 160.5 L 128.4 160.5" fill="#8996cd"/><rect x="160.5" y="160.5" width="32.1" height="32.1" fill="#eceeff"/><path d="M 160.5 192.6 A 32.1 32.1 0 0 0 192.6 160.5 L 160.5 160.5" fill="#a8b2ff"/><rect x="192.6" y="160.5" width="32.1" height="32.1" fill="#586ab8"/><rect x="192.6" y="160.5" width="32.1" height="32.1" fill="#c0c7ff"/><rect x="224.7" y="160.5" width="32.1" height="32.1" fill="#b1bade"/><rect x="224.7" y="160.5" width="32.1" height="32.1" fill="#6b7bc0"/><rect x="256.8" y="160.5" width="32.1" height="32.1" fill="#f0f2ff"/><polygon points="256.8,160.5 288.90000000000003,192.6 256.8,192.6" fill="#8c99ff"/><rect x="288.9" y="160.5" width="32.1" height="32.1" fill="#eceeff"/><polygon points="288.9,160.5 321,192.6 288.9,192.6" fill="#b6beff"/><rect x="321" y="160.5" width="32.1" height="32.1" fill="#c6cdff"/><polygon points="321,160.5 353.1,160.5 353.1,192.6" fill="#f1f3f9"/><rect x="353.1" y="160.5" width="32.1" height="32.1" fill="#c1c8ff"/><polygon points="353.1,160.5 385.20000000000005,160.5 385.20000000000005,192.6" fill="#8795ff"/><rect x="385.2" y="160.5" width="32.1" height="32.1" fill="#f9f9ff"/><rect x="385.2" y="160.5" width="32.1" height="32.1" fill="#eff1ff"/><rect x="417.3" y="160.5" width="32.1" height="32.1" fill="#c2c9ff"/><polygon points="449.40000000000003,160.5 449.40000000000003,192.6 417.3,192.6" fill="#94a1ff"/><rect x="449.4" y="160.5" width="32.1" height="32.1" fill="#cfd5ff"/><rect x="449.4" y="160.5" width="32.1" height="32.1" fill="#d3d8ff"/><rect x="0" y="192.6" width="32.1" height="32.1" fill="#9ba7ff"/><rect x="0" y="192.6" width="32.1" height="32.1" fill="#f4f5fa"/><rect x="32.1" y="192.6" width="32.1" height="32.1" fill="#fafbff"/><polygon points="32.1,192.6 64.2,192.6 64.2,224.7" fill="#5466b6"/><rect x="64.2" y="192.6" width="32.1" height="32.1" fill="#7b8aff"/><rect x="64.2" y="192.6" width="32.1" height="32.1" fill="#919eff"/><rect x="96.3" y="192.6" width="32.1" height="32.1" fill="#8f9cff"/><rect x="96.3" y="192.6" width="32.1" height="32.1" fill="#455ab0"/><rect x="128.4" y="192.6" width="32.1" height="32.1" fill="#8895cd"/><polygon points="128.4,192.6 160.5,192.6 160.5,224.7" fill="#939fd1"/><rect x="160.5" y="192.6" width="32.1" height="32.1" fill="#f0f2ff"/><path d="M 160.5 224.7 A 32.1 32.1 0 0 1  192.6 192.6 L 192.6 224.7" fill="#8895cc"/><rect x="192.6" y="192.6" width="32.1" height="32.1" fill="#99a5ff"/><path d="M 192.6 192.6 A 32.1 32.1 0 0 1  224.7 224.7 L 192.6 192.6 A 32.1 32.1 0 0 0 224.7 224.7" fill="#dce0ff"/><rect x="224.7" y="192.6" width="32.1" height="32.1" fill="#f9faff"/><path d="M 224.7 224.7 A 32.1 32.1 0 0 0 256.8 192.6 L 224.7 192.6" fill="#dde1f1"/><rect x="256.8" y="192.6" width="32.1" height="32.1" fill="#b0b9ff"/><rect x="256.8" y="192.6" width="32.1" height="32.1" fill="#d9ddef"/><rect x="288.9" y="192.6" width="32.1" height="32.1" fill="#a7b1da"/><rect x="288.9" y="192.6" width="32.1" height="32.1" fill="#c9cfe8"/><rect x="321" y="192.6" width="32.1" height="32.1" fill="#bec6ff"/><path d="M 321 224.7 A 32.1 32.1 0 0 0 353.1 192.6 L 321 192.6" fill="#8a97cd"/><rect x="353.1" y="192.6" width="32.1" height="32.1" fill="#b4bdff"/><rect x="353.1" y="192.6" width="32.1" height="32.1" fill="#f5f7ff"/><rect x="385.2" y="192.6" width="32.1" height="32.1" fill="#b7c0ff"/><path d="M 385.2 224.7 A 32.1 32.1 0 0 1  417.3 192.6 L 385.2 224.7 A 32.1 32.1 0 0 0 417.3 192.6" fill="#e4e8ff"/><rect x="417.3" y="192.6" width="32.1" height="32.1" fill="#eff0f8"/><polygon points="417.3,192.6 449.40000000000003,192.6 417.3,224.7" fill="#e5e8f4"/><rect x="449.4" y="192.6" width="32.1" height="32.1" fill="#4a5eb2"/><rect x="449.4" y="192.6" width="32.1" height="32.1" fill="#8c98ce"/><rect x="0" y="224.7" width="32.1" height="32.1" fill="#8895cc"/><polygon points="0,224.7 32.1,256.8 0,256.8" fill="#94a0ff"/><rect x="32.1" y="224.7" width="32.1" height="32.1" fill="#a7b1da"/><polygon points="32.1,224.7 64.2,224.7 64.2,256.8" fill="#d3d9ff"/><rect x="64.2" y="224.7" width="32.1" height="32.1" fill="#8d9bff"/><path d="M 64.2 256.8 A 32.1 32.1 0 0 0 96.30000000000001 224.7 L 64.2 224.7" fill="#d0d5eb"/><rect x="96.3" y="224.7" width="32.1" height="32.1" fill="#97a2d3"/><rect x="96.3" y="224.7" width="32.1" height="32.1" fill="#7d8dff"/><rect x="128.4" y="224.7" width="32.1" height="32.1" fill="#aab4ff"/><rect x="128.4" y="224.7" width="32.1" height="32.1" fill="#97a3ff"/><rect x="160.5" y="224.7" width="32.1" height="32.1" fill="#fafafd"/><polygon points="192.6,224.7 192.6,256.8 160.5,256.8" fill="#8d99ce"/><rect x="192.6" y="224.7" width="32.1" height="32.1" fill="#7382c4"/><polygon points="192.6,224.7 224.7,224.7 224.7,256.8" fill="#6677be"/><rect x="224.7" y="224.7" width="32.1" height="32.1" fill="#b9c1ff"/><polygon points="224.7,224.7 256.8,224.7 256.8,256.8" fill="#7b8bff"/><rect x="256.8" y="224.7" width="32.1" height="32.1" fill="#cfd5ff"/><polygon points="256.8,224.7 288.90000000000003,256.8 256.8,256.8" fill="#c2c9ff"/><rect x="288.9" y="224.7" width="32.1" height="32.1" fill="#e5e8ff"/><rect x="288.9" y="224.7" width="32.1" height="32.1" fill="#bdc4e3"/><rect x="321" y="224.7" width="32.1" height="32.1" fill="#96a3ff"/><rect x="321" y="224.7" width="32.1" height="32.1" fill="#5b6db9"/><rect x="353.1" y="224.7" width="32.1" height="32.1" fill="#fbfbfd"/><rect x="353.1" y="224.7" width="32.1" height="32.1" fill="#b0b8dd"/><rect x="385.2" y="224.7" width="32.1" height="32.1" fill="#cad1ff"/><rect x="385.2" y="224.7" width="32.1" height="32.1" fill="#4a5db2"/><rect x="417.3" y="224.7" width="32.1" height="32.1" fill="#a3aeff"/><polygon points="417.3,224.7 449.40000000000003,256.8 417.3,256.8" fill="#e4e7ff"/><rect x="449.4" y="224.7" width="32.1" height="32.1" fill="#f9fafc"/><rect x="449.4" y="224.7" width="32.1" height="32.1" fill="#465ab0"/><rect x="0" y="256.8" width="32.1" height="32.1" fill="#495cb1"/><polygon points="0,256.8 32.1,256.8 0,288.90000000000003" fill="#4055ae"/><rect x="32.1" y="256.8" width="32.1" height="32.1" fill="#b8c0e1"/><path d="M 32.1 288.90000000000003 A 32.1 32.1 0 0 1  64.2 256.8 L 32.1 288.90000000000003 A 32.1 32.1 0 0 0 64.2 256.8" fill="#c2c9ff"/><rect x="64.2" y="256.8" width="32.1" height="32.1" fill="#4e61b4"/><rect x="64.2" y="256.8" width="32.1" height="32.1" fill="#b8c0ff"/><rect x="96.3" y="256.8" width="32.1" height="32.1" fill="#dee2ff"/><rect x="96.3" y="256.8" width="32.1" height="32.1" fill="#99a5ff"/><rect x="128.4" y="256.8" width="32.1" height="32.1" fill="#b0baff"/><path d="M 128.4 288.90000000000003 A 32.1 32.1 0 0 1  160.5 256.8 L 160.5 288.90000000000003" fill="#3f54ae"/><rect x="160.5" y="256.8" width="32.1" height="32.1" fill="#4c60b3"/><path d="M 160.5 288.90000000000003 A 32.1 32.1 0 0 1  192.6 256.8 L 192.6 288.90000000000003" fill="#4a5db2"/><rect x="192.6" y="256.8" width="32.1" height="32.1" fill="#4257af"/><polygon points="192.6,256.8 224.7,256.8 224.7,288.90000000000003" fill="#b9c1ff"/><rect x="224.7" y="256.8" width="32.1" height="32.1" fill="#a3aeff"/><rect x="224.7" y="256.8" width="32.1" height="32.1" fill="#f6f7ff"/><rect x="256.8" y="256.8" width="32.1" height="32.1" fill="#dfe2f1"/><path d="M 256.8 288.90000000000003 A 32.1 32.1 0 0 1  288.90000000000003 256.8 L 256.8 288.90000000000003 A 32.1 32.1 0 0 0 288.90000000000003 256.8" fill="#7080c2"/><rect x="288.9" y="256.8" width="32.1" height="32.1" fill="#6b7bc0"/><polygon points="288.9,256.8 321,256.8 321,288.90000000000003" fill="#4b5fb3"/><rect x="321" y="256.8" width="32.1" height="32.1" fill="#8f9cff"/><polygon points="321,256.8 353.1,256.8 321,288.90000000000003" fill="#fcfcff"/><rect x="353.1" y="256.8" width="32.1" height="32.1" fill="#fcfcff"/><path d="M 353.1 256.8 A 32.1 32.1 0 0 0 385.20000000000005 288.90000000000003 L 385.20000000000005 256.8" fill="#a8b1da"/><rect x="385.2" y="256.8" width="32.1" height="32.1" fill="#a7b2ff"/><polygon points="417.3,256.8 417.3,288.90000000000003 385.2,288.90000000000003" fill="#d3d8ff"/><rect x="417.3" y="256.8" width="32.1" height="32.1" fill="#e4e7ff"/><rect x="417.3" y="256.8" width="32.1" height="32.1" fill="#fbfbff"/><rect x="449.4" y="256.8" width="32.1" height="32.1" fill="#8896ff"/><polygon points="449.4,256.8 481.5,288.90000000000003 449.4,288.90000000000003" fill="#96a2ff"/><rect x="0" y="288.9" width="32.1" height="32.1" fill="#b8c0e1"/><polygon points="0,288.9 32.1,321 0,321" fill="#bcc3e2"/><rect x="32.1" y="288.9" width="32.1" height="32.1" fill="#d1d6ff"/><rect x="32.1" y="288.9" width="32.1" height="32.1" fill="#f9f9fc"/><rect x="64.2" y="288.9" width="32.1" height="32.1" fill="#7f8eff"/><polygon points="64.2,288.9 96.30000000000001,321 64.2,321" fill="#9ba7ff"/><rect x="96.3" y="288.9" width="32.1" height="32.1" fill="#6677be"/><rect x="96.3" y="288.9" width="32.1" height="32.1" fill="#8f9cff"/><rect x="128.4" y="288.9" width="32.1" height="32.1" fill="#b3bcff"/><path d="M 128.4 321 A 32.1 32.1 0 0 0 160.5 288.9 L 128.4 288.9" fill="#bdc4e3"/><rect x="160.5" y="288.9" width="32.1" height="32.1" fill="#6576be"/><rect x="160.5" y="288.9" width="32.1" height="32.1" fill="#6f7ec2"/><rect x="192.6" y="288.9" width="32.1" height="32.1" fill="#9ca7ff"/><rect x="192.6" y="288.9" width="32.1" height="32.1" fill="#909dff"/><rect x="224.7" y="288.9" width="32.1" height="32.1" fill="#9ea9d6"/><path d="M 224.7 288.9 A 32.1 32.1 0 0 0 256.8 321 L 256.8 288.9" fill="#9ea8d6"/><rect x="256.8" y="288.9" width="32.1" height="32.1" fill="#d2d7ec"/><path d="M 256.8 321 A 32.1 32.1 0 0 0 288.90000000000003 288.9 L 256.8 288.9" fill="#fbfbfd"/><rect x="288.9" y="288.9" width="32.1" height="32.1" fill="#f5f6ff"/><rect x="288.9" y="288.9" width="32.1" height="32.1" fill="#8392ff"/><rect x="321" y="288.9" width="32.1" height="32.1" fill="#f6f7fb"/><polygon points="353.1,288.9 353.1,321 321,321" fill="#b3bcff"/><rect x="353.1" y="288.9" width="32.1" height="32.1" fill="#a7b1ff"/><rect x="353.1" y="288.9" width="32.1" height="32.1" fill="#e4e7f4"/><rect x="385.2" y="288.9" width="32.1" height="32.1" fill="#bfc7ff"/><path d="M 385.2 321 A 32.1 32.1 0 0 1  417.3 288.9 L 417.3 321" fill="#f3f4ff"/><rect x="417.3" y="288.9" width="32.1" height="32.1" fill="#7281c3"/><path d="M 417.3 288.9 A 32.1 32.1 0 0 0 449.40000000000003 321 L 449.40000000000003 288.9" fill="#6172bc"/><rect x="449.4" y="288.9" width="32.1" height="32.1" fill="#eff1ff"/><path d="M 449.4 288.9 A 32.1 32.1 0 0 0 481.5 321 L 481.5 288.9" fill="#acb5ff"/><rect x="0" y="321" width="32.1" height="32.1" fill="#8693cc"/><polygon points="32.1,321 32.1,353.1 0,353.1" fill="#8b98ff"/><rect x="32.1" y="321" width="32.1" height="32.1" fill="#808fff"/><path d="M 32.1 321 A 32.1 32.1 0 0 0 64.2 353.1 L 64.2 321" fill="#fefeff"/><rect x="64.2" y="321" width="32.1" height="32.1" fill="#e4e7ff"/><polygon points="96.30000000000001,321 96.30000000000001,353.1 64.2,353.1" fill="#a4aeff"/><rect x="96.3" y="321" width="32.1" height="32.1" fill="#8392ff"/><rect x="96.3" y="321" width="32.1" height="32.1" fill="#6e7ec1"/><rect x="128.4" y="321" width="32.1" height="32.1" fill="#8997ff"/><polygon points="128.4,321 160.5,321 128.4,353.1" fill="#f4f6ff"/><rect x="160.5" y="321" width="32.1" height="32.1" fill="#929fff"/><path d="M 160.5 353.1 A 32.1 32.1 0 0 1  192.6 321 L 192.6 353.1" fill="#abb4db"/><rect x="192.6" y="321" width="32.1" height="32.1" fill="#586ab8"/><polygon points="192.6,321 224.7,321 224.7,353.1" fill="#4559b0"/><rect x="224.7" y="321" width="32.1" height="32.1" fill="#ced4ff"/><path d="M 224.7 353.1 A 32.1 32.1 0 0 1  256.8 321 L 224.7 353.1 A 32.1 32.1 0 0 0 256.8 321" fill="#93a0ff"/><rect x="256.8" y="321" width="32.1" height="32.1" fill="#a0aad7"/><path d="M 256.8 353.1 A 32.1 32.1 0 0 0 288.90000000000003 321 L 256.8 321" fill="#7f8dc8"/><rect x="288.9" y="321" width="32.1" height="32.1" fill="#8b99ff"/><path d="M 288.9 353.1 A 32.1 32.1 0 0 1  321 321 L 321 353.1" fill="#919dd0"/><rect x="321" y="321" width="32.1" height="32.1" fill="#f1f3f9"/><rect x="321" y="321" width="32.1" height="32.1" fill="#8592cb"/><rect x="353.1" y="321" width="32.1" height="32.1" fill="#465ab0"/><polygon points="353.1,321 385.20000000000005,321 385.20000000000005,353.1" fill="#a1abd7"/><rect x="385.2" y="321" width="32.1" height="32.1" fill="#c1c9ff"/><path d="M 385.2 353.1 A 32.1 32.1 0 0 1  417.3 321 L 385.2 353.1 A 32.1 32.1 0 0 0 417.3 321" fill="#8290ff"/><rect x="417.3" y="321" width="32.1" height="32.1" fill="#eff1ff"/><polygon points="417.3,321 449.40000000000003,353.1 417.3,353.1" fill="#8593ff"/><rect x="449.4" y="321" width="32.1" height="32.1" fill="#f4f5ff"/><path d="M 449.4 321 A 32.1 32.1 0 0 0 481.5 353.1 L 481.5 321" fill="#8896ff"/><rect x="0" y="353.1" width="32.1" height="32.1" fill="#acb5ff"/><path d="M 0 353.1 A 32.1 32.1 0 0 1 32.1 385.20000000000005 L 0 385.20000000000005" fill="#a7b1ff"/><rect x="32.1" y="353.1" width="32.1" height="32.1" fill="#f9fafc"/><polygon points="64.2,353.1 64.2,385.20000000000005 32.1,385.20000000000005" fill="#acb6ff"/><rect x="64.2" y="353.1" width="32.1" height="32.1" fill="#d6dbff"/><rect x="64.2" y="353.1" width="32.1" height="32.1" fill="#8795ff"/><rect x="96.3" y="353.1" width="32.1" height="32.1" fill="#c2c8e5"/><rect x="96.3" y="353.1" width="32.1" height="32.1" fill="#c6cde7"/><rect x="128.4" y="353.1" width="32.1" height="32.1" fill="#dce0ff"/><polygon points="128.4,353.1 160.5,353.1 160.5,385.20000000000005" fill="#c9cfe8"/><rect x="160.5" y="353.1" width="32.1" height="32.1" fill="#cad0ff"/><rect x="160.5" y="353.1" width="32.1" height="32.1" fill="#bac2ff"/><rect x="192.6" y="353.1" width="32.1" height="32.1" fill="#bfc6e4"/><path d="M 192.6 385.20000000000005 A 32.1 32.1 0 0 1  224.7 353.1 L 192.6 385.20000000000005 A 32.1 32.1 0 0 0 224.7 353.1" fill="#7584c4"/><rect x="224.7" y="353.1" width="32.1" height="32.1" fill="#adb6dc"/><rect x="224.7" y="353.1" width="32.1" height="32.1" fill="#9ca8ff"/><rect x="256.8" y="353.1" width="32.1" height="32.1" fill="#a9b2da"/><path d="M 256.8 385.20000000000005 A 32.1 32.1 0 0 0 288.90000000000003 353.1 L 256.8 353.1" fill="#697abf"/><rect x="288.9" y="353.1" width="32.1" height="32.1" fill="#b2bbff"/><rect x="288.9" y="353.1" width="32.1" height="32.1" fill="#abb5ff"/><rect x="321" y="353.1" width="32.1" height="32.1" fill="#e5e8f4"/><rect x="321" y="353.1" width="32.1" height="32.1" fill="#f2f3ff"/><rect x="353.1" y="353.1" width="32.1" height="32.1" fill="#d8ddff"/><path d="M 353.1 353.1 A 32.1 32.1 0 0 0 385.20000000000005 385.20000000000005 L 385.20000000000005 353.1" fill="#b0baff"/><rect x="385.2" y="353.1" width="32.1" height="32.1" fill="#e9ecf6"/><path d="M 385.2 385.20000000000005 A 32.1 32.1 0 0 0 417.3 353.1 L 385.2 353.1" fill="#a8b2ff"/><rect x="417.3" y="353.1" width="32.1" height="32.1" fill="#e4e7f4"/><path d="M 417.3 353.1 A 32.1 32.1 0 0 1 449.40000000000003 385.20000000000005 L 417.3 385.20000000000005" fill="#ced4ff"/><rect x="449.4" y="353.1" width="32.1" height="32.1" fill="#8d9bff"/><rect x="449.4" y="353.1" width="32.1" height="32.1" fill="#e9ecf6"/><rect x="0" y="385.2" width="32.1" height="32.1" fill="#d0d5eb"/><polygon points="32.1,385.2 32.1,417.3 0,417.3" fill="#b9c1e1"/><rect x="32.1" y="385.2" width="32.1" height="32.1" fill="#afb8ff"/><polygon points="64.2,385.2 64.2,417.3 32.1,417.3" fill="#aeb8ff"/><rect x="64.2" y="385.2" width="32.1" height="32.1" fill="#f2f4ff"/><rect x="64.2" y="385.2" width="32.1" height="32.1" fill="#b3bcff"/><rect x="96.3" y="385.2" width="32.1" height="32.1" fill="#b7bfff"/><path d="M 96.3 385.2 A 32.1 32.1 0 0 0 128.4 417.3 L 128.4 385.2" fill="#6677be"/><rect x="128.4" y="385.2" width="32.1" height="32.1" fill="#e5e8ff"/><path d="M 128.4 385.2 A 32.1 32.1 0 0 1  160.5 417.3 L 128.4 385.2 A 32.1 32.1 0 0 0 160.5 417.3" fill="#a5afff"/><rect x="160.5" y="385.2" width="32.1" height="32.1" fill="#697abf"/><path d="M 160.5 385.2 A 32.1 32.1 0 0 1  192.6 417.3 L 160.5 385.2 A 32.1 32.1 0 0 0 192.6 417.3" fill="#a3aeff"/><rect x="192.6" y="385.2" width="32.1" height="32.1" fill="#fbfbff"/><rect x="192.6" y="385.2" width="32.1" height="32.1" fill="#94a1ff"/><rect x="224.7" y="385.2" width="32.1" height="32.1" fill="#99a5ff"/><rect x="224.7" y="385.2" width="32.1" height="32.1" fill="#8795ff"/><rect x="256.8" y="385.2" width="32.1" height="32.1" fill="#acb5dc"/><polygon points="256.8,385.2 288.90000000000003,385.2 288.90000000000003,417.3" fill="#4c60b3"/><rect x="288.9" y="385.2" width="32.1" height="32.1" fill="#e1e5ff"/><polygon points="288.9,385.2 321,385.2 321,417.3" fill="#dce0ff"/><rect x="321" y="385.2" width="32.1" height="32.1" fill="#ced4ff"/><polygon points="321,385.2 353.1,385.2 321,417.3" fill="#6778bf"/><rect x="353.1" y="385.2" width="32.1" height="32.1" fill="#b5beff"/><path d="M 353.1 385.2 A 32.1 32.1 0 0 1 385.20000000000005 417.3 L 353.1 417.3" fill="#7c8ac7"/><rect x="385.2" y="385.2" width="32.1" height="32.1" fill="#edeff7"/><rect x="385.2" y="385.2" width="32.1" height="32.1" fill="#dee2f1"/><rect x="417.3" y="385.2" width="32.1" height="32.1" fill="#bac2e2"/><rect x="417.3" y="385.2" width="32.1" height="32.1" fill="#f6f7ff"/><rect x="449.4" y="385.2" width="32.1" height="32.1" fill="#feffff"/><polygon points="449.4,385.2 481.5,385.2 449.4,417.3" fill="#7989ff"/><rect x="0" y="417.3" width="32.1" height="32.1" fill="#96a2ff"/><rect x="0" y="417.3" width="32.1" height="32.1" fill="#9aa5d4"/><rect x="32.1" y="417.3" width="32.1" height="32.1" fill="#f6f7fb"/><polygon points="32.1,417.3 64.2,417.3 32.1,449.40000000000003" fill="#d4d8ed"/><rect x="64.2" y="417.3" width="32.1" height="32.1" fill="#94a0d1"/><rect x="64.2" y="417.3" width="32.1" height="32.1" fill="#d9deff"/><rect x="96.3" y="417.3" width="32.1" height="32.1" fill="#f2f3f9"/><rect x="96.3" y="417.3" width="32.1" height="32.1" fill="#d8dcff"/><rect x="128.4" y="417.3" width="32.1" height="32.1" fill="#7787ff"/><polygon points="160.5,417.3 160.5,449.40000000000003 128.4,449.40000000000003" fill="#c7ceff"/><rect x="160.5" y="417.3" width="32.1" height="32.1" fill="#dfe3ff"/><rect x="160.5" y="417.3" width="32.1" height="32.1" fill="#b6bee0"/><rect x="192.6" y="417.3" width="32.1" height="32.1" fill="#c0c7ff"/><path d="M 192.6 449.40000000000003 A 32.1 32.1 0 0 1  224.7 417.3 L 224.7 449.40000000000003" fill="#e9ebff"/><rect x="224.7" y="417.3" width="32.1" height="32.1" fill="#8592cb"/><rect x="224.7" y="417.3" width="32.1" height="32.1" fill="#b3bcff"/><rect x="256.8" y="417.3" width="32.1" height="32.1" fill="#929ed1"/><path d="M 256.8 417.3 A 32.1 32.1 0 0 1 288.90000000000003 449.40000000000003 L 256.8 449.40000000000003" fill="#c6cdff"/><rect x="288.9" y="417.3" width="32.1" height="32.1" fill="#dfe3ff"/><polygon points="288.9,417.3 321,449.40000000000003 288.9,449.40000000000003" fill="#e2e5f3"/><rect x="321" y="417.3" width="32.1" height="32.1" fill="#495db2"/><path d="M 321 417.3 A 32.1 32.1 0 0 1  353.1 449.40000000000003 L 321 417.3 A 32.1 32.1 0 0 0 353.1 449.40000000000003" fill="#4a5eb2"/><rect x="353.1" y="417.3" width="32.1" height="32.1" fill="#8997ff"/><path d="M 353.1 417.3 A 32.1 32.1 0 0 1 385.20000000000005 449.40000000000003 L 353.1 449.40000000000003" fill="#7a89c7"/><rect x="385.2" y="417.3" width="32.1" height="32.1" fill="#ced3ff"/><path d="M 385.2 417.3 A 32.1 32.1 0 0 1  417.3 449.40000000000003 L 385.2 417.3 A 32.1 32.1 0 0 0 417.3 449.40000000000003" fill="#8795ff"/><rect x="417.3" y="417.3" width="32.1" height="32.1" fill="#5a6cb9"/><polygon points="449.40000000000003,417.3 449.40000000000003,449.40000000000003 417.3,449.40000000000003" fill="#cad0ff"/><rect x="449.4" y="417.3" width="32.1" height="32.1" fill="#fafbfd"/><path d="M 449.4 449.40000000000003 A 32.1 32.1 0 0 0 481.5 417.3 L 449.4 417.3" fill="#dee2f1"/><rect x="0" y="449.4" width="32.1" height="32.1" fill="#949fd1"/><rect x="0" y="449.4" width="32.1" height="32.1" fill="#b3bcff"/><rect x="32.1" y="449.4" width="32.1" height="32.1" fill="#e8eaf5"/><path d="M 32.1 481.5 A 32.1 32.1 0 0 0 64.2 449.4 L 32.1 449.4" fill="#eef0ff"/><rect x="64.2" y="449.4" width="32.1" height="32.1" fill="#d1d6ff"/><polygon points="64.2,449.4 96.30000000000001,449.4 64.2,481.5" fill="#4c5fb3"/><rect x="96.3" y="449.4" width="32.1" height="32.1" fill="#8190ff"/><polygon points="128.4,449.4 128.4,481.5 96.3,481.5" fill="#7989ff"/><rect x="128.4" y="449.4" width="32.1" height="32.1" fill="#4f62b4"/><rect x="128.4" y="449.4" width="32.1" height="32.1" fill="#b2bade"/><rect x="160.5" y="449.4" width="32.1" height="32.1" fill="#f5f6fb"/><path d="M 160.5 449.4 A 32.1 32.1 0 0 0 192.6 481.5 L 192.6 449.4" fill="#8f9dff"/><rect x="192.6" y="449.4" width="32.1" height="32.1" fill="#9ca7d5"/><polygon points="192.6,449.4 224.7,481.5 192.6,481.5" fill="#afb8ff"/><rect x="224.7" y="449.4" width="32.1" height="32.1" fill="#7584c4"/><path d="M 224.7 449.4 A 32.1 32.1 0 0 0 256.8 481.5 L 256.8 449.4" fill="#8694ff"/><rect x="256.8" y="449.4" width="32.1" height="32.1" fill="#6e7ec1"/><rect x="256.8" y="449.4" width="32.1" height="32.1" fill="#edeff8"/><rect x="288.9" y="449.4" width="32.1" height="32.1" fill="#edeff7"/><polygon points="288.9,449.4 321,449.4 288.9,481.5" fill="#e9ecff"/><rect x="321" y="449.4" width="32.1" height="32.1" fill="#dfe3ff"/><rect x="321" y="449.4" width="32.1" height="32.1" fill="#f0f2ff"/><rect x="353.1" y="449.4" width="32.1" height="32.1" fill="#adb7ff"/><rect x="353.1" y="449.4" width="32.1" height="32.1" fill="#919dd0"/><rect x="385.2" y="449.4" width="32.1" height="32.1" fill="#7f8cc8"/><path d="M 385.2 449.4 A 32.1 32.1 0 0 0 417.3 481.5 L 417.3 449.4" fill="#f2f4ff"/><rect x="417.3" y="449.4" width="32.1" height="32.1" fill="#7988ff"/><path d="M 417.3 449.4 A 32.1 32.1 0 0 0 449.40000000000003 481.5 L 449.40000000000003 449.4" fill="#f9fafd"/><rect x="449.4" y="449.4" width="32.1" height="32.1" fill="#d0d5eb"/><path d="M 449.4 449.4 A 32.1 32.1 0 0 1  481.5 481.5 L 449.4 449.4 A 32.1 32.1 0 0 0 481.5 481.5" fill="#ced3ea"/><rect x="0" y="481.5" width="32.1" height="32.1" fill="#f9f9fc"/><polygon points="0,481.5 32.1,481.5 32.1,513.6" fill="#808ec9"/><rect x="32.1" y="481.5" width="32.1" height="32.1" fill="#7e8cc8"/><polygon points="32.1,481.5 64.2,481.5 32.1,513.6" fill="#97a2d3"/><rect x="64.2" y="481.5" width="32.1" height="32.1" fill="#5467b6"/><path d="M 64.2 481.5 A 32.1 32.1 0 0 1  96.30000000000001 513.6 L 64.2 481.5 A 32.1 32.1 0 0 0 96.30000000000001 513.6" fill="#a2adff"/><rect x="96.3" y="481.5" width="32.1" height="32.1" fill="#d6dbee"/><polygon points="128.4,481.5 128.4,513.6 96.3,513.6" fill="#c4cbff"/><rect x="128.4" y="481.5" width="32.1" height="32.1" fill="#eef0ff"/><polygon points="128.4,481.5 160.5,513.6 128.4,513.6" fill="#97a3ff"/><rect x="160.5" y="481.5" width="32.1" height="32.1" fill="#f4f5fa"/><path d="M 160.5 481.5 A 32.1 32.1 0 0 1 192.6 513.6 L 160.5 513.6" fill="#596bb8"/><rect x="192.6" y="481.5" width="32.1" height="32.1" fill="#dbdfff"/><rect x="192.6" y="481.5" width="32.1" height="32.1" fill="#7888ff"/><rect x="224.7" y="481.5" width="32.1" height="32.1" fill="#c3caff"/><rect x="224.7" y="481.5" width="32.1" height="32.1" fill="#8e9bff"/><rect x="256.8" y="481.5" width="32.1" height="32.1" fill="#e0e3ff"/><rect x="256.8" y="481.5" width="32.1" height="32.1" fill="#e7eaff"/><rect x="288.9" y="481.5" width="32.1" height="32.1" fill="#7888ff"/><polygon points="321,481.5 321,513.6 288.9,513.6" fill="#ebeeff"/><rect x="321" y="481.5" width="32.1" height="32.1" fill="#98a3d3"/><path d="M 321 481.5 A 32.1 32.1 0 0 1 353.1 513.6 L 321 513.6" fill="#fafaff"/><rect x="353.1" y="481.5" width="32.1" height="32.1" fill="#bcc3ff"/><polygon points="385.20000000000005,481.5 385.20000000000005,513.6 353.1,513.6" fill="#e9ecff"/><rect x="385.2" y="481.5" width="32.1" height="32.1" fill="#eeeff8"/><rect x="385.2" y="481.5" width="32.1" height="32.1" fill="#a8b2da"/><rect x="417.3" y="481.5" width="32.1" height="32.1" fill="#bfc6ff"/><path d="M 417.3 513.6 A 32.1 32.1 0 0 0 449.40000000000003 481.5 L 417.3 481.5" fill="#eff1f8"/><rect x="449.4" y="481.5" width="32.1" height="32.1" fill="#9ba5d4"/><path d="M 449.4 513.6 A 32.1 32.1 0 0 1  481.5 481.5 L 449.4 513.6 A 32.1 32.1 0 0 0 481.5 481.5" fill="#8694ff"/><rect x="0" y="513.6" width="32.1" height="32.1" fill="#8a96cd"/><rect x="0" y="513.6" width="32.1" height="32.1" fill="#8d9bff"/><rect x="32.1" y="513.6" width="32.1" height="32.1" fill="#8492cb"/><path d="M 32.1 513.6 A 32.1 32.1 0 0 1 64.2 545.7 L 32.1 545.7" fill="#d5daed"/><rect x="64.2" y="513.6" width="32.1" height="32.1" fill="#d1d6eb"/><path d="M 64.2 545.7 A 32.1 32.1 0 0 1  96.30000000000001 513.6 L 64.2 545.7 A 32.1 32.1 0 0 0 96.30000000000001 513.6" fill="#8c98ce"/><rect x="96.3" y="513.6" width="32.1" height="32.1" fill="#a0abff"/><polygon points="96.3,513.6 128.4,513.6 96.3,545.7" fill="#adb6dc"/><rect x="128.4" y="513.6" width="32.1" height="32.1" fill="#d9deff"/><path d="M 128.4 545.7 A 32.1 32.1 0 0 0 160.5 513.6 L 128.4 513.6" fill="#4357af"/><rect x="160.5" y="513.6" width="32.1" height="32.1" fill="#f4f5ff"/><rect x="160.5" y="513.6" width="32.1" height="32.1" fill="#7e8dff"/><rect x="192.6" y="513.6" width="32.1" height="32.1" fill="#7a88c6"/><polygon points="192.6,513.6 224.7,513.6 192.6,545.7" fill="#7080c2"/><rect x="224.7" y="513.6" width="32.1" height="32.1" fill="#586ab8"/><polygon points="224.7,513.6 256.8,513.6 224.7,545.7" fill="#abb5ff"/><rect x="256.8" y="513.6" width="32.1" height="32.1" fill="#c4cbe6"/><rect x="256.8" y="513.6" width="32.1" height="32.1" fill="#a3aeff"/><rect x="288.9" y="513.6" width="32.1" height="32.1" fill="#5365b6"/><rect x="288.9" y="513.6" width="32.1" height="32.1" fill="#7181c3"/><rect x="321" y="513.6" width="32.1" height="32.1" fill="#9ea8d6"/><rect x="321" y="513.6" width="32.1" height="32.1" fill="#9ea9ff"/><rect x="353.1" y="513.6" width="32.1" height="32.1" fill="#a3aeff"/><path d="M 353.1 545.7 A 32.1 32.1 0 0 0 385.20000000000005 513.6 L 353.1 513.6" fill="#cfd5ff"/><rect x="385.2" y="513.6" width="32.1" height="32.1" fill="#c1c9ff"/><polygon points="385.2,513.6 417.3,513.6 385.2,545.7" fill="#5568b7"/><rect x="417.3" y="513.6" width="32.1" height="32.1" fill="#f0f1f8"/><rect x="417.3" y="513.6" width="32.1" height="32.1" fill="#7483c4"/><rect x="449.4" y="513.6" width="32.1" height="32.1" fill="#f6f7ff"/><path d="M 449.4 545.7 A 32.1 32.1 0 0 1  481.5 513.6 L 449.4 545.7 A 32.1 32.1 0 0 0 481.5 513.6" fill="#c6cdff"/><rect x="0" y="545.7" width="32.1" height="32.1" fill="#a5afff"/><polygon points="32.1,545.7 32.1,577.8000000000001 0,577.8000000000001" fill="#8491cb"/><rect x="32.1" y="545.7" width="32.1" height="32.1" fill="#465ab0"/><polygon points="32.1,545.7 64.2,545.7 64.2,577.8000000000001" fill="#e9ebff"/><rect x="64.2" y="545.7" width="32.1" height="32.1" fill="#a7b0da"/><polygon points="64.2,545.7 96.30000000000001,545.7 64.2,577.8000000000001" fill="#f3f4ff"/><rect x="96.3" y="545.7" width="32.1" height="32.1" fill="#6273bc"/><polygon points="128.4,545.7 128.4,577.8000000000001 96.3,577.8000000000001" fill="#475bb1"/><rect x="128.4" y="545.7" width="32.1" height="32.1" fill="#d5daff"/><rect x="128.4" y="545.7" width="32.1" height="32.1" fill="#6e7ec1"/><rect x="160.5" y="545.7" width="32.1" height="32.1" fill="#9da9ff"/><path d="M 160.5 577.8000000000001 A 32.1 32.1 0 0 0 192.6 545.7 L 160.5 545.7" fill="#ebedff"/><rect x="192.6" y="545.7" width="32.1" height="32.1" fill="#9ca7d5"/><path d="M 192.6 577.8000000000001 A 32.1 32.1 0 0 0 224.7 545.7 L 192.6 545.7" fill="#bec5e3"/><rect x="224.7" y="545.7" width="32.1" height="32.1" fill="#aab3db"/><polygon points="224.7,545.7 256.8,545.7 256.8,577.8000000000001" fill="#909cd0"/><rect x="256.8" y="545.7" width="32.1" height="32.1" fill="#e4e7f3"/><polygon points="256.8,545.7 288.90000000000003,545.7 256.8,577.8000000000001" fill="#ebedf6"/><rect x="288.9" y="545.7" width="32.1" height="32.1" fill="#7f8dc9"/><rect x="288.9" y="545.7" width="32.1" height="32.1" fill="#98a4ff"/><rect x="321" y="545.7" width="32.1" height="32.1" fill="#5f70bb"/><polygon points="353.1,545.7 353.1,577.8000000000001 321,577.8000000000001" fill="#f6f7fb"/><rect x="353.1" y="545.7" width="32.1" height="32.1" fill="#c0c7ff"/><rect x="353.1" y="545.7" width="32.1" height="32.1" fill="#3e53ad"/><rect x="385.2" y="545.7" width="32.1" height="32.1" fill="#b6bfff"/><path d="M 385.2 577.8000000000001 A 32.1 32.1 0 0 1  417.3 545.7 L 417.3 577.8000000000001" fill="#8795ff"/><rect x="417.3" y="545.7" width="32.1" height="32.1" fill="#b2bbff"/><polygon points="449.40000000000003,545.7 449.40000000000003,577.8000000000001 417.3,577.8000000000001" fill="#8693cb"/><rect x="449.4" y="545.7" width="32.1" height="32.1" fill="#fefeff"/><rect x="449.4" y="545.7" width="32.1" height="32.1" fill="#c1c8ff"/><rect x="0" y="577.8" width="32.1" height="32.1" fill="#abb4db"/><rect x="0" y="577.8" width="32.1" height="32.1" fill="#aeb8ff"/><rect x="32.1" y="577.8" width="32.1" height="32.1" fill="#e1e5f2"/><polygon points="32.1,577.8 64.2,577.8 32.1,609.9" fill="#8d9aff"/><rect x="64.2" y="577.8" width="32.1" height="32.1" fill="#d9ddef"/><path d="M 64.2 609.9 A 32.1 32.1 0 0 1  96.30000000000001 577.8 L 96.30000000000001 609.9" fill="#a7b1ff"/><rect x="96.3" y="577.8" width="32.1" height="32.1" fill="#808fff"/><rect x="96.3" y="577.8" width="32.1" height="32.1" fill="#ebeeff"/><rect x="128.4" y="577.8" width="32.1" height="32.1" fill="#4c5fb3"/><polygon points="160.5,577.8 160.5,609.9 128.4,609.9" fill="#bcc4ff"/><rect x="160.5" y="577.8" width="32.1" height="32.1" fill="#f3f5fa"/><rect x="160.5" y="577.8" width="32.1" height="32.1" fill="#f8f8fc"/><rect x="192.6" y="577.8" width="32.1" height="32.1" fill="#bfc6ff"/><path d="M 192.6 609.9 A 32.1 32.1 0 0 0 224.7 577.8 L 192.6 577.8" fill="#acb5dc"/><rect x="224.7" y="577.8" width="32.1" height="32.1" fill="#dce0ff"/><rect x="224.7" y="577.8" width="32.1" height="32.1" fill="#7f8eff"/><rect x="256.8" y="577.8" width="32.1" height="32.1" fill="#cbd1ff"/><polygon points="256.8,577.8 288.90000000000003,609.9 256.8,609.9" fill="#9da8d6"/><rect x="288.9" y="577.8" width="32.1" height="32.1" fill="#b3bcff"/><polygon points="288.9,577.8 321,577.8 321,609.9" fill="#f4f6ff"/><rect x="321" y="577.8" width="32.1" height="32.1" fill="#aab3db"/><path d="M 321 609.9 A 32.1 32.1 0 0 0 353.1 577.8 L 321 577.8" fill="#6c7cc1"/><rect x="353.1" y="577.8" width="32.1" height="32.1" fill="#4a5eb2"/><path d="M 353.1 577.8 A 32.1 32.1 0 0 1  385.20000000000005 609.9 L 353.1 577.8 A 32.1 32.1 0 0 0 385.20000000000005 609.9" fill="#9ba6d4"/><rect x="385.2" y="577.8" width="32.1" height="32.1" fill="#f0f2f9"/><path d="M 385.2 577.8 A 32.1 32.1 0 0 1 417.3 609.9 L 385.2 609.9" fill="#b4bcdf"/><rect x="417.3" y="577.8" width="32.1" height="32.1" fill="#bac3ff"/><rect x="417.3" y="577.8" width="32.1" height="32.1" fill="#919eff"/><rect x="449.4" y="577.8" width="32.1" height="32.1" fill="#485cb1"/><rect x="449.4" y="577.8" width="32.1" height="32.1" fill="#a6b0ff"/><rect x="0" y="609.9" width="32.1" height="32.1" fill="#8795ff"/><rect x="0" y="609.9" width="32.1" height="32.1" fill="#e3e6ff"/><rect x="32.1" y="609.9" width="32.1" height="32.1" fill="#e5e8f4"/><rect x="32.1" y="609.9" width="32.1" height="32.1" fill="#8c9aff"/><rect x="64.2" y="609.9" width="32.1" height="32.1" fill="#aeb6dc"/><rect x="64.2" y="609.9" width="32.1" height="32.1" fill="#adb6dc"/><rect x="96.3" y="609.9" width="32.1" height="32.1" fill="#a9b3ff"/><path d="M 96.3 609.9 A 32.1 32.1 0 0 1 128.4 642 L 96.3 642" fill="#7787ff"/><rect x="128.4" y="609.9" width="32.1" height="32.1" fill="#ebedff"/><path d="M 128.4 642 A 32.1 32.1 0 0 1  160.5 609.9 L 160.5 642" fill="#b9c1ff"/><rect x="160.5" y="609.9" width="32.1" height="32.1" fill="#cfd4ff"/><rect x="160.5" y="609.9" width="32.1" height="32.1" fill="#7e8dff"/><rect x="192.6" y="609.9" width="32.1" height="32.1" fill="#95a2ff"/><rect x="192.6" y="609.9" width="32.1" height="32.1" fill="#8f9cff"/><rect x="224.7" y="609.9" width="32.1" height="32.1" fill="#a8b2ff"/><polygon points="224.7,609.9 256.8,642 224.7,642" fill="#c8cfff"/><rect x="256.8" y="609.9" width="32.1" height="32.1" fill="#8a97ff"/><polygon points="256.8,609.9 288.90000000000003,609.9 256.8,642" fill="#96a1d2"/><rect x="288.9" y="609.9" width="32.1" height="32.1" fill="#99a5ff"/><polygon points="288.9,609.9 321,642 288.9,642" fill="#c9cfff"/><rect x="321" y="609.9" width="32.1" height="32.1" fill="#dfe3f1"/><polygon points="353.1,609.9 353.1,642 321,642" fill="#6071bb"/><rect x="353.1" y="609.9" width="32.1" height="32.1" fill="#f4f6ff"/><rect x="353.1" y="609.9" width="32.1" height="32.1" fill="#dee2ff"/><rect x="385.2" y="609.9" width="32.1" height="32.1" fill="#5265b5"/><polygon points="385.2,609.9 417.3,609.9 417.3,642" fill="#e8eaf5"/><rect x="417.3" y="609.9" width="32.1" height="32.1" fill="#ced3ff"/><path d="M 417.3 609.9 A 32.1 32.1 0 0 0 449.40000000000003 642 L 449.40000000000003 609.9" fill="#ced4ff"/><rect x="449.4" y="609.9" width="32.1" height="32.1" fill="#a5b0ff"/><rect x="449.4" y="609.9" width="32.1" height="32.1" fill="#8895cc"/></g></svg>