<svg xmlns="http://www.w3.org/2000/svg" width="626.702" height="625.163" viewBox="0 0 626.702 625.163">
  <g id="vector-graphic" transform="translate(-52.632 -15.966)">
    <g id="vector-background" transform="translate(32.535 15.966)">
      <circle id="Ellipse_1" data-name="Ellipse 1" cx="190.93" cy="190.93" r="190.93" transform="translate(119.294 122.13)" fill="#9fabff"/>
      <path id="Path_5" data-name="Path 5" d="M114.341,41.25c-.725.032-1.325.9-1.64,2.178l-7.97-.149A20.338,20.338,0,0,0,100.909,36l5.669-6.342c1.2.751,2.322.978,2.875.454.834-.784.085-2.933-1.673-4.8s-3.859-2.74-4.692-1.954c-.528.5-.417,1.544.181,2.719l-6.975,5.8A20.253,20.253,0,0,0,88.282,28.8l-.772-8.983c1.373-.361,2.3-1.02,2.3-1.783,0-1.145-2.077-2.073-4.64-2.073s-4.64.928-4.64,2.073c0,.727.838,1.363,2.1,1.733l-.564,9.021a20.267,20.267,0,0,0-8.109,3.089l-6.993-5.81c.6-1.175.71-2.221.181-2.719-.832-.786-2.933.089-4.691,1.954s-2.507,4.015-1.674,4.8c.555.524,1.674.3,2.877-.454l5.691,6.368a20.337,20.337,0,0,0-3.8,7.257l-8.009.149c-.315-1.279-.915-2.146-1.64-2.178-1.144-.049-2.162,1.986-2.275,4.546s.725,4.677,1.869,4.727c.761.034,1.46-.868,1.88-2.223l7.377.961a20.311,20.311,0,0,0,3.513,11.151L63.715,65.5c-1.2-.751-2.321-.978-2.877-.455-.832.786-.084,2.934,1.674,4.8s3.859,2.74,4.691,1.954c.529-.5.417-1.544-.181-2.719l5.216-4.333a20.321,20.321,0,0,0,10.01,4.373l.533,6.212c-1.371.361-2.3,1.02-2.3,1.783,0,1.145,2.077,2.073,4.64,2.073s4.64-.928,4.64-2.073c0-.727-.838-1.363-2.1-1.733l.392-6.264a20.312,20.312,0,0,0,10.028-4.4l5.246,4.359c-.6,1.175-.709,2.221-.181,2.719.834.786,2.934-.089,4.692-1.954s2.507-4.015,1.673-4.8c-.554-.522-1.673-.3-2.875.455l-4.585-5.13a20.309,20.309,0,0,0,3.484-11.117l7.335-.956c.42,1.355,1.119,2.257,1.881,2.223,1.144-.049,1.98-2.167,1.868-4.727S115.484,41.2,114.341,41.25Z" transform="translate(-24.71 -15.966)" fill="#9fabff"/>
      <path id="Path_6" data-name="Path 6" d="M476.959,68.046c-.834.037-1.521,1.031-1.883,2.5l-9.149-.171a23.36,23.36,0,0,0-4.388-8.36l6.508-7.28c1.381.863,2.664,1.122,3.3.521.957-.9.1-3.369-1.921-5.51S465,46.6,464.041,47.5c-.607.572-.479,1.773.207,3.121l-8.008,6.655a23.258,23.258,0,0,0-9.2-3.517l-.886-10.314c1.576-.413,2.644-1.17,2.644-2.045,0-1.315-2.385-2.38-5.327-2.38s-5.327,1.065-5.327,2.38c0,.832.963,1.563,2.413,1.99l-.647,10.356a23.264,23.264,0,0,0-9.309,3.547l-8.029-6.671c.687-1.348.815-2.549.208-3.121-.957-.9-3.369.1-5.386,2.245s-2.878,4.607-1.921,5.51c.636.6,1.921.341,3.3-.521l6.533,7.309a23.349,23.349,0,0,0-4.366,8.332l-9.2.171c-.361-1.469-1.049-2.463-1.881-2.5-1.314-.058-2.483,2.279-2.612,5.219s.832,5.37,2.146,5.427c.873.038,1.677-1,2.158-2.553l8.47,1.1a23.3,23.3,0,0,0,4.033,12.8l-5.223,5.843c-1.381-.863-2.664-1.122-3.3-.521-.956.9-.1,3.368,1.922,5.51s4.429,3.146,5.386,2.245c.606-.572.479-1.774-.208-3.122l5.988-4.975a23.325,23.325,0,0,0,11.491,5.02l.613,7.132c-1.574.414-2.644,1.171-2.644,2.046,0,1.315,2.385,2.38,5.327,2.38s5.329-1.065,5.329-2.38c0-.834-.963-1.565-2.415-1.99l.45-7.191a23.318,23.318,0,0,0,11.512-5.048L464.31,100c-.687,1.348-.815,2.551-.208,3.122.957.9,3.369-.1,5.386-2.245s2.878-4.609,1.923-5.51c-.638-.6-1.921-.341-3.3.521L462.844,90a23.306,23.306,0,0,0,4-12.762l8.422-1.1c.483,1.556,1.285,2.592,2.16,2.553,1.314-.058,2.273-2.487,2.145-5.427S478.272,67.989,476.959,68.046Z" transform="translate(106.57 -7.408)" fill="#9fabff"/>
      <path id="Path_9" data-name="Path 9" d="M465.539,424.887c-.809.036-1.478,1-1.829,2.43l-8.894-.167a22.724,22.724,0,0,0-4.265-8.127l6.326-7.077c1.342.839,2.59,1.09,3.21.507.93-.878.093-3.275-1.869-5.356s-4.306-3.059-5.235-2.183c-.59.557-.465,1.725.2,3.034l-7.785,6.468a22.631,22.631,0,0,0-8.94-3.418l-.861-10.025c1.53-.4,2.57-1.138,2.57-1.988,0-1.278-2.319-2.315-5.179-2.315s-5.178,1.037-5.178,2.315c0,.809.935,1.521,2.346,1.933l-.629,10.068a22.63,22.63,0,0,0-9.05,3.447l-7.8-6.485c.668-1.31.791-2.478.2-3.034-.93-.876-3.273.1-5.235,2.183s-2.8,4.478-1.868,5.356c.62.583,1.868.332,3.21-.507l6.35,7.106a22.7,22.7,0,0,0-4.244,8.1l-8.939.167c-.352-1.429-1.02-2.394-1.831-2.43-1.277-.056-2.413,2.215-2.538,5.072s.809,5.22,2.086,5.275c.85.038,1.63-.968,2.1-2.481l8.233,1.072a22.661,22.661,0,0,0,3.92,12.444l-5.076,5.681c-1.342-.839-2.59-1.091-3.21-.507-.93.876-.093,3.275,1.869,5.356s4.306,3.058,5.235,2.182c.59-.555.465-1.724-.2-3.035l5.821-4.836a22.665,22.665,0,0,0,11.17,4.88l.6,6.933c-1.53.4-2.57,1.138-2.57,1.988,0,1.278,2.319,2.313,5.179,2.313s5.179-1.035,5.179-2.313c0-.81-.936-1.521-2.348-1.935l.437-6.989a22.674,22.674,0,0,0,11.191-4.906l5.855,4.865c-.666,1.311-.791,2.479-.2,3.035.93.876,3.275-.1,5.235-2.182s2.8-4.48,1.868-5.356c-.618-.584-1.868-.332-3.21.507l-5.116-5.725a22.661,22.661,0,0,0,3.887-12.406l8.186-1.067c.469,1.512,1.249,2.519,2.1,2.481,1.277-.055,2.21-2.417,2.084-5.275S466.816,424.831,465.539,424.887Z" transform="translate(103.054 125.365)" fill="#9fabff"/>
      <path id="Path_10" data-name="Path 10" d="M93.491,232.377c-.554.025-1.011.684-1.251,1.659l-6.076-.114a15.512,15.512,0,0,0-2.914-5.552l4.322-4.835c.917.573,1.769.745,2.193.347.635-.6.064-2.238-1.277-3.66s-2.941-2.09-3.576-1.491c-.4.38-.318,1.178.137,2.073l-5.318,4.418a15.48,15.48,0,0,0-6.109-2.335l-.588-6.849c1.046-.274,1.755-.777,1.755-1.359,0-.873-1.584-1.581-3.538-1.581s-3.538.708-3.538,1.581c0,.554.639,1.039,1.6,1.322l-.429,6.878a15.444,15.444,0,0,0-6.183,2.354l-5.331-4.429c.455-.9.54-1.693.137-2.073-.635-.6-2.236.069-3.576,1.491s-1.912,3.061-1.277,3.66c.424.4,1.275.226,2.193-.347l4.339,4.854a15.5,15.5,0,0,0-2.9,5.533l-6.107.114c-.24-.975-.7-1.635-1.251-1.659-.872-.038-1.648,1.514-1.733,3.465s.551,3.567,1.423,3.6c.581.025,1.115-.662,1.434-1.695l5.625.732a15.479,15.479,0,0,0,2.678,8.5l-3.468,3.881c-.917-.573-1.77-.746-2.193-.347-.636.6-.064,2.238,1.275,3.66s2.943,2.09,3.578,1.491c.4-.38.318-1.178-.139-2.073l3.978-3.3a15.462,15.462,0,0,0,7.631,3.334l.407,4.738c-1.046.274-1.757.777-1.757,1.359,0,.872,1.584,1.58,3.538,1.58s3.539-.708,3.539-1.58c0-.554-.639-1.039-1.6-1.322l.3-4.776a15.483,15.483,0,0,0,7.646-3.351l4,3.324c-.455.9-.54,1.694-.139,2.073.636.6,2.238-.069,3.578-1.491s1.912-3.061,1.277-3.66c-.424-.4-1.277-.226-2.194.347l-3.5-3.911a15.481,15.481,0,0,0,2.656-8.476l5.593-.728c.32,1.033.853,1.72,1.433,1.695.873-.038,1.511-1.652,1.425-3.6S94.363,232.339,93.491,232.377Z" transform="translate(-27.094 57.217)" fill="#9fabff"/>
      <path id="Path_172" data-name="Path 172" d="M93.491,232.377c-.554.025-1.011.684-1.251,1.659l-6.076-.114a15.512,15.512,0,0,0-2.914-5.552l4.322-4.835c.917.573,1.769.745,2.193.347.635-.6.064-2.238-1.277-3.66s-2.941-2.09-3.576-1.491c-.4.38-.318,1.178.137,2.073l-5.318,4.418a15.48,15.48,0,0,0-6.109-2.335l-.588-6.849c1.046-.274,1.755-.777,1.755-1.359,0-.873-1.584-1.581-3.538-1.581s-3.538.708-3.538,1.581c0,.554.639,1.039,1.6,1.322l-.429,6.878a15.444,15.444,0,0,0-6.183,2.354l-5.331-4.429c.455-.9.54-1.693.137-2.073-.635-.6-2.236.069-3.576,1.491s-1.912,3.061-1.277,3.66c.424.4,1.275.226,2.193-.347l4.339,4.854a15.5,15.5,0,0,0-2.9,5.533l-6.107.114c-.24-.975-.7-1.635-1.251-1.659-.872-.038-1.648,1.514-1.733,3.465s.551,3.567,1.423,3.6c.581.025,1.115-.662,1.434-1.695l5.625.732a15.479,15.479,0,0,0,2.678,8.5l-3.468,3.881c-.917-.573-1.77-.746-2.193-.347-.636.6-.064,2.238,1.275,3.66s2.943,2.09,3.578,1.491c.4-.38.318-1.178-.139-2.073l3.978-3.3a15.462,15.462,0,0,0,7.631,3.334l.407,4.738c-1.046.274-1.757.777-1.757,1.359,0,.872,1.584,1.58,3.538,1.58s3.539-.708,3.539-1.58c0-.554-.639-1.039-1.6-1.322l.3-4.776a15.483,15.483,0,0,0,7.646-3.351l4,3.324c-.455.9-.54,1.694-.139,2.073.636.6,2.238-.069,3.578-1.491s1.912-3.061,1.277-3.66c-.424-.4-1.277-.226-2.194.347l-3.5-3.911a15.481,15.481,0,0,0,2.656-8.476l5.593-.728c.32,1.033.853,1.72,1.433,1.695.873-.038,1.511-1.652,1.425-3.6S94.363,232.339,93.491,232.377Z" transform="translate(551.568 9.014)" fill="#9fabff"/>
    </g>
    <g id="vector-main-content" transform="translate(130.913 115.18)">
      <ellipse id="vector-shadow" cx="129.683" cy="15.377" rx="129.683" ry="15.377" transform="translate(86.052 495.194)" fill="#b6bfff"/>
      <path id="vector-shield-outline" d="M477.649,200.922C422.279,179.64,306.484,99.073,306.484,99.073S189.094,179.64,133.724,200.922c0,0-1.744,121.265,39.967,182.361,38.458,56.329,126.693,117.843,132,117.843,7.891,0,93.538-61.514,132-117.843C479.393,322.187,477.649,200.922,477.649,200.922Z" transform="translate(-93.351 -84.328)" fill="#eaebff" stroke="#00354c" stroke-miterlimit="10" stroke-width="1"/>
      <path id="vector-shield-fill" d="M445.476,207.5c-47.219-18.148-145.964-86.853-145.964-86.853s-100.106,68.7-147.324,86.853c0,0-1.486,103.412,34.082,155.511,32.8,48.036,108.04,100.494,112.562,100.494,6.73,0,79.766-52.458,112.562-100.494C446.962,310.912,445.476,207.5,445.476,207.5Z" transform="translate(-86.497 -76.319)" fill="#b6bfff"/>
      <g id="Group_8" data-name="Group 8" transform="translate(0)">
        <g id="vector-vaccinated-woman" transform="translate(20.916)">
          <path id="Path_13" data-name="Path 13" d="M219.619,175.489s-10.09,3.885-17.6,24.227-28.522,90.725-28.522,90.725l28.522,15.8S217,274.825,219.183,248.225,219.619,175.489,219.619,175.489Z" transform="translate(-99.499 -55.959)" fill="#efb19e"/>
          <path id="Path_14" data-name="Path 14" d="M139.434,234.048l56.727,25.561s10.02,1.865,16.337,13.6,5.128,11.3,5.128,11.3S207,299.117,195.427,295.87s-63.985-42.331-63.985-42.331Z" transform="translate(-115.11 -34.22)" fill="#ffccb8"/>
          <path id="Path_15" data-name="Path 15" d="M211.9,179.27,240.166,165.3H270.6l41.128,14.744s19.788,69.84-20.951,120.279c0,0,14.711,53.656,15.958,78.472,0,0-38.284,7.99-66.264,6.8s-45.655-3.316-45.655-3.316l7.5-108.768s-6.1-11.222-7.9-31.589S211.9,179.27,211.9,179.27Z" transform="translate(-91.778 -59.741)" fill="#7787ff"/>
          <path id="Path_16" data-name="Path 16" d="M306.523,173.007s-10.124,3.22-17.992,20.388-28.881,79.4-28.881,79.4l-65.272-15.221-6.8,21.86s51.951,28.826,78.647,24.213c36.159-6.247,54.139-75.909,56.285-98.267S306.523,173.007,306.523,173.007Z" transform="translate(-94.271 -56.881)" fill="#ffccb8"/>
          <path id="Path_17" data-name="Path 17" d="M204.245,241.467s-2.756-11.025-7.752-16.022-8.786-3.1-11.025,0c0,0-8.614-4.036-12.748-1.587s-2.066,8.059-2.066,8.059-2.756,2.659-1.378,8a20.69,20.69,0,0,0,1.033,7.924c1.378,3.446,2.585,4.307,2.585,4.307s-.344,2.412,4.478,5.685,17.593,3.871,17.593,3.871Z" transform="translate(-101.208 -38.556)" fill="#ffccb8"/>
          <path id="Path_18" data-name="Path 18" d="M271.315,191.122l-1.956,7.093,16.561,4.791,1.3-6.877Z" transform="translate(-63.91 -50.156)" fill="#fff"/>
          <path id="Path_19" data-name="Path 19" d="M284.151,190.467l-7.119-1.861-4.964,18.059,7.09,1.941,2.009-7.3,1.188-4.317Z" transform="translate(-62.905 -51.09)" fill="#fff"/>
          <path id="Path_20" data-name="Path 20" d="M135.853,258.873S123.2,245.051,120.59,237.488s.262-14.605,2.74-16.822,5.737,0,5.737,0a10.234,10.234,0,0,1,4.694-.985,4.082,4.082,0,0,1,3.912,3.072s2.869-1.826,4.825-.913,3,3.782,3,3.782,1.955-1.7,5.346.521,3.912,7.041,3.521,9-1.3,2.348-1.3,2.348,3.52,0,4.824,7.432-4.956,13.952-4.956,13.952S149.682,265.263,135.853,258.873Z" transform="translate(-119.521 -39.554)" fill="#ffccb8"/>
          <path id="Path_21" data-name="Path 21" d="M125.447,222.421s1.43-3.912,6.781-4.565,11.6,2.217,11.735,4.565-3.52,3.782-3.52,3.782Z" transform="translate(-117.336 -40.266)" fill="#ffccb8"/>
          <path id="Path_22" data-name="Path 22" d="M214.073,175.489s-5.117,4.277-10.936,8.7c-7.794,5.925-14.707,34.048-14.707,34.048l9.51,4.419S212.026,177.52,214.073,175.489Z" transform="translate(-93.954 -55.959)" fill="#5668d1"/>
          <path id="Path_23" data-name="Path 23" d="M258.736,200.764s5.005-12.711,17.57-16.183c19.762-5.462,19.661,21.325,19.661,21.325s5.208-21.988-6.14-29.054c-5.355-3.333-12.934-2.507-18.346,1.661S259.354,195.795,258.736,200.764Z" transform="translate(-67.854 -56.218)" fill="#5668d1"/>
          <path id="Path_24" data-name="Path 24" d="M221.511,169.728s.876,11.289,20.131,11.466a53.154,53.154,0,0,0,32.3-10.871l-13.575-5.558H230.6Z" transform="translate(-81.673 -59.94)" fill="#ffccb8"/>
          <path id="Path_25" data-name="Path 25" d="M267.355,96.737s-8.148-9.6-24.008-8.295-43.941,19.788-44.232,39.867,16.879,25.462,16.879,25.462Z" transform="translate(-89.989 -88.32)" fill="#00486e"/>
          <path id="Path_26" data-name="Path 26" d="M250.418,172.766l-22.671-.2.54-6.178,1.108-12.591,24.823,1.431-1.112,5.135Z" transform="translate(-79.358 -64.014)" fill="#ffccb8"/>
          <path id="Path_27" data-name="Path 27" d="M252.959,162.917c-6.406,2.882-17.681,7.255-24.819,6.025l1.108-12.592,26.826-9.449Z" transform="translate(-79.212 -66.572)" fill="#c68e75"/>
          <path id="Path_28" data-name="Path 28" d="M207.152,146.2s-.942,19.934,9.906,30.288,35.645,5.972,43.316-5.958,11.136-46.782,11.136-46.782-22.909-18.472-38.075-18.715S207.691,125.431,207.152,146.2Z" transform="translate(-87.012 -82.116)" fill="#ffccb8"/>
          <path id="Path_29" data-name="Path 29" d="M251.373,133.229s5.068-5.113,10.631-2.116,2.893,13.969-3.013,19.485-13.54,2.069-13.54,2.069Z" transform="translate(-72.786 -72.783)" fill="#ffccb8"/>
          <path id="Path_30" data-name="Path 30" d="M220.2,125.65l-3.649,13.863s-3.591-2.862-5.076-.912,3.018,6.177,7.174,6.14,4.533-17.175,3.848-19.783S220.715,123.7,220.2,125.65Z" transform="translate(-85.506 -75.254)" fill="#ce7d5d"/>
          <path id="Path_31" data-name="Path 31" d="M209.479,119.12a6.3,6.3,0,0,1,4.893-4.43c4.129-.932,7.05,4.829,5.582,5.637s-2.412-1.389-5.038-1.432A5.461,5.461,0,0,0,210.7,121.3S209.128,121.607,209.479,119.12Z" transform="translate(-86.159 -78.568)" fill="#00354c"/>
          <path id="Path_32" data-name="Path 32" d="M228.667,119.032a6.3,6.3,0,0,1,5.784-3.18c4.233.048,5.743,6.328,4.129,6.774s-2.025-1.909-4.572-2.556a5.067,5.067,0,0,0-4.085.474S227.751,121.371,228.667,119.032Z" transform="translate(-79.1 -78.099)" fill="#00354c"/>
          <path id="Path_33" data-name="Path 33" d="M232.513,127.494c-.036,2.236-1,4.036-2.16,4.016s-2.066-1.847-2.031-4.084,1-4.036,2.161-4.018S232.548,125.256,232.513,127.494Z" transform="translate(-79.145 -75.293)" fill="#00354c"/>
          <path id="Path_34" data-name="Path 34" d="M215.89,127.075c-.03,1.922-.861,3.468-1.855,3.451s-1.776-1.587-1.744-3.509.861-3.466,1.855-3.451S215.92,125.153,215.89,127.075Z" transform="translate(-85.097 -75.235)" fill="#00354c"/>
          <path id="Path_35" data-name="Path 35" d="M266.227,132.992c-7.071-.18-13.217,3.073-17.139,5.045-4.961-2.109-20.4-8.318-28.619-7.586-9.884.882-13.045,3.307-13.045,3.307-3.931,24.751,11.8,34.98,11.8,34.98s12.011,3.339,21.682-3.779c7.04-5.182,9-16.711,9.555-22.606l14.179-5.913Z" transform="translate(-87.137 -72.701)" fill="#fff"/>
          <path id="Path_36" data-name="Path 36" d="M306.6,201.024c-4.648,14.121-15.852,13.973-21.379,8.445s-10.04-6.257-16.879-3.351-15.284-1.459-16.5-10.967,5.8-28.428,5.8-28.428a12.22,12.22,0,0,0,4.513-.457A15.654,15.654,0,0,0,272.8,153.554c1.4-8.484-6.491-9.756-9.533-9.163-1.508.3-2.684,1.94-3.5,3.561a20.353,20.353,0,0,0-1.311,3.313s-4.365-1.607-7.432-7.184-5.181-14.937-5.181-14.937-6.986-.234-14.949-5.861a15.9,15.9,0,0,1-7-13.59c.012-.247.025-.383.025-.383,3.87-5.33,16.544-13.009,28.39-15.2,5.379-1,10.585-.865,14.727,1.138,13.243,6.393,19.352,21.825,19.352,35.723s7.418,21.3,14.986,31.061S311.267,186.915,306.6,201.024Z" transform="translate(-80.793 -86.395)" fill="#00486e"/>
          <path id="Path_37" data-name="Path 37" d="M239.842,159.918c-5.075,4.643-13.483,6.851-22.291,5.84a29.8,29.8,0,0,1-7.025-8.957c-2.5-4.871-4.382-11.639-3.523-20.555,2.2-1.156,6.4-2.7,13.483-3.013,11.6-.516,24.534,7,24.534,7S246.279,154.015,239.842,159.918Z" transform="translate(-87.137 -71.655)" fill="#c1e6ff"/>
          <path id="Path_38" data-name="Path 38" d="M238.832,158.017c-5.075,4.643-13.483,6.851-22.291,5.84a29.8,29.8,0,0,1-7.025-8.957c4.446,2,12.288,4.23,20.341.165,12.267-6.191,14.154-16.736,14.154-16.736S245.268,152.114,238.832,158.017Z" transform="translate(-86.126 -69.754)" fill="#a7d2ea"/>
          <path id="Path_39" data-name="Path 39" d="M310.164,192.424c-1.769,8.631-10.066,17.324-15.717,10.56s-12.192-3.475-16.965-3.091-9.892-4.983-11.66-16.211c-1.459-9.335,1.211-13.689,3.19-16.953a15.654,15.654,0,0,0,10.634-12.711c1.4-8.484-6.491-9.756-9.533-9.163-1.508.3-2.683,1.94-3.5,3.561-6.109-4.823-9.261-22.172-9.261-22.172a45.966,45.966,0,0,1-12.725-5.341,28.954,28.954,0,0,1-10.56-11.129,20.285,20.285,0,0,0-3.325.383c-17.583,3.6-21.911,30.679-21.911,30.679S196.4,120.372,219.118,102.7c19.377-15.074,35.686-9.941,40.039-8.125.754.322,1.15.532,1.15.532s-7.728,6.183-2.782,6.491,9.719-4.724,14.616-3.14,12.587,10.955,12.946,21.911,3.524,24.025,16.075,42.215S311.931,183.781,310.164,192.424Z" transform="translate(-87.64 -86.859)" fill="#00354c"/>
          <line id="Line_1" data-name="Line 1" x1="10.418" y1="10.774" transform="translate(166.668 218.241)" fill="none" stroke="#00354c" stroke-linecap="round" stroke-linejoin="round" stroke-width="1"/>
          <path id="Path_40" data-name="Path 40" d="M329.32,203.475s1.3-20.788-11.771-22.029-22.082,8.854-25.46,16.887-25.5,71.367-25.5,71.367l-62.863-14.659s-2.541-11.854-8.038-15.828-10.217,1.463-10.217,1.463-7.712-4.584-12.271-1.831-2.544,8.3-2.544,8.3-2.049,3.2-1.729,5.936a10.929,10.929,0,0,0,.773,3.528,14.529,14.529,0,0,0,.265,5.46,10.353,10.353,0,0,0,2.93,5.305s-.941,2.312,4.07,5.4,17.55,4.156,17.55,4.156" transform="translate(-101.208 -53.786)" fill="none" stroke="#00354c" stroke-linecap="round" stroke-linejoin="round" stroke-width="1"/>
          <line id="Line_2" data-name="Line 2" x1="3.631" y2="12.338" transform="translate(93.755 210.811)" fill="none" stroke="#00354c" stroke-linecap="round" stroke-linejoin="round" stroke-width="1"/>
          <path id="Path_41" data-name="Path 41" d="M187.905,269.9s54.079,30.145,78.882,22.974,35.046-29.451,40.2-42.414,14.541-41.6,14.766-50.167" transform="translate(-94.149 -46.751)" fill="none" stroke="#00354c" stroke-linecap="round" stroke-linejoin="round" stroke-width="1"/>
          <path id="Path_42" data-name="Path 42" d="M220.364,170.756s2.873,10.032,19.718,11.268" transform="translate(-82.099 -57.716)" fill="none" stroke="#00354c" stroke-linecap="round" stroke-linejoin="round" stroke-width="1"/>
          <path id="Path_43" data-name="Path 43" d="M251.437,176.747a25.9,25.9,0,0,1-10.808,2.346" transform="translate(-74.576 -55.492)" fill="none" stroke="#00354c" stroke-linecap="round" stroke-linejoin="round" stroke-width="1"/>
          <path id="Path_44" data-name="Path 44" d="M207.475,132.847s-5.463,24.153,11.8,34.98,39.8-.906,42.773-10.342" transform="translate(-87.189 -71.79)" fill="none" stroke="#00354c" stroke-linecap="round" stroke-linejoin="round" stroke-width="1"/>
          <line id="Line_3" data-name="Line 3" x1="4.22" y2="3.811" transform="translate(190.599 243.72)" fill="none" stroke="#00354c" stroke-linecap="round" stroke-linejoin="round" stroke-width="1"/>
          <path id="Path_45" data-name="Path 45" d="M201.639,257.522l-6.966,90.529a208.447,208.447,0,0,0,54.692,3.436,568.48,568.48,0,0,0,57.227-6.925" transform="translate(-91.637 -25.506)" fill="none" stroke="#00354c" stroke-linecap="round" stroke-linejoin="round" stroke-width="1"/>
          <path id="Path_46" data-name="Path 46" d="M176.8,251.86s15.026.655,19.938,19.467" transform="translate(-98.272 -27.608)" fill="none" stroke="#00354c" stroke-linecap="round" stroke-linejoin="round" stroke-width="1"/>
          <path id="Path_47" data-name="Path 47" d="M229.383,274.24s-7.5,30.3-26.878,28.134c-12.9-1.443-62.5-38.024-66.642-42.8s-13.811-14.206-15.78-23.188,1.8-14.432,4.023-15.55a4.806,4.806,0,0,1,4.359.189s.584-2.712,5.958-3.18,10.863,2.537,11.739,3.686-.846,2.885-.846,2.885" transform="translate(-119.532 -40.254)" fill="none" stroke="#00354c" stroke-linecap="round" stroke-linejoin="round" stroke-width="1"/>
          <path id="Path_48" data-name="Path 48" d="M124.294,230.195s.531-9.409,5.829-10.468,5.792,3.073,5.792,3.073" transform="translate(-117.764 -39.601)" fill="none" stroke="#00354c" stroke-linecap="round" stroke-linejoin="round" stroke-width="1"/>
          <path id="Path_49" data-name="Path 49" d="M130.526,231.387s.24-8.079,4.836-9.739,6.719,3.908,6.719,3.908" transform="translate(-115.45 -38.938)" fill="none" stroke="#00354c" stroke-linecap="round" stroke-linejoin="round" stroke-width="1"/>
          <path id="Path_50" data-name="Path 50" d="M136.468,232.02s1.325-7.989,6.36-8.1,5.767,7.1,5.26,9.649-2.082,2.426-2.082,2.426" transform="translate(-113.244 -37.981)" fill="none" stroke="#00354c" stroke-linecap="round" stroke-linejoin="round" stroke-width="1"/>
          <path id="Path_51" data-name="Path 51" d="M140.236,232.815s2.712-1.326,6.589,1.323,4.142,9.275,4.142,9.275" transform="translate(-111.846 -34.801)" fill="none" stroke="#00354c" stroke-linecap="round" stroke-linejoin="round" stroke-width="1"/>
          <line id="Line_4" data-name="Line 4" x2="39.404" y2="18.544" transform="translate(39.122 206.496)" fill="none" stroke="#00354c" stroke-linecap="round" stroke-linejoin="round" stroke-width="1"/>
          <line id="Line_5" data-name="Line 5" y1="20.819" x2="6.582" transform="translate(89.437 162.995)" fill="none" stroke="#00354c" stroke-linecap="round" stroke-linejoin="round" stroke-width="1"/>
          <path id="Path_52" data-name="Path 52" d="M197.941,222.657l-9.51-4.419s6.746-35.647,25.642-42.748c0,0-14.535,39.047-17.083,51.589S200.1,257.91,200.1,257.91" transform="translate(-93.954 -55.959)" fill="none" stroke="#00354c" stroke-linecap="round" stroke-linejoin="round" stroke-width="1"/>
          <path id="Path_53" data-name="Path 53" d="M208.395,179.819l17.985-8.886,9.091-4.962.249-4.452" transform="translate(-86.543 -61.146)" fill="none" stroke="#00354c" stroke-linecap="round" stroke-linejoin="round" stroke-width="1"/>
        </g>
        <g id="vector-vaccine-woman" transform="translate(194.733 126.744)">
          <path id="Path_54" data-name="Path 54" d="M415.829,277.686c-1.352-1.067-5.762-.956-6.952-.906L409,276.1c5.357.509,8.024-.625,6.66-1.7-1.205-.949-5.105-.861-6.216-.814h0c-.188.007-.3.014-.3.014l0,.01-5.562.444.428-1.207s5.634-1.946,4.1-3.076-4.548-.714-6.652.261-4.631,4.654-4.631,4.654l-1.988-.38-44.885-13.509L340.4,237.178,324.022,241.2s5.154,21.41,14.117,30.968c7.826,8.343,45.108,12.148,54.456,12.98h.008c1.356.121,2.128.178,2.128.178v-.008l2.8.225c6.567,2.121,9.618.975,9.618.975l.005-.029c5.267.424,7.843-.725,6.464-1.813-1.115-.879-4.457-.9-5.991-.862l.091-.51c5.832.52,8.716-.728,7.214-1.911-1.272-1-5.253-.965-6.714-.916l.159-.9C414.369,280.15,417.351,278.884,415.829,277.686Z" transform="translate(-217.435 -159.802)" fill="#ffb592"/>
          <path id="Path_55" data-name="Path 55" d="M277.323,354.875l-16.886,17.219-8.956,6.582,19.214,18.87,2.039-14.678,15.6-11.362Z" transform="translate(-244.364 -116.108)" fill="#ffb592" stroke="#00354c" stroke-miterlimit="10" stroke-width="1"/>
          <path id="Path_56" data-name="Path 56" d="M257.569,369.848s-6.749,4.426-10.483,8.986,6.478,11.889,14.269,16.739,11.625,10.365,20.017,11.932S277.48,389.761,272.887,384c0,0,.042.972-7.274-2.4S257.569,369.848,257.569,369.848Z" transform="translate(-246.291 -110.55)" fill="#3f3e3e" stroke="#00354c" stroke-linecap="round" stroke-linejoin="round" stroke-width="1"/>
          <path id="Path_57" data-name="Path 57" d="M360.661,294.687s-18.159,69-38.6,83.755-45.186,30.868-45.186,30.868l-17.748-17.387,37.835-37.9s.188-44.713,11.976-66.59S360.661,294.687,360.661,294.687Z" transform="translate(-241.526 -144.169)" fill="#6aaa84"/>
          <path id="Path_58" data-name="Path 58" d="M351.076,311.067l.112,7.307-66.538-13.119,14.343-29.133s-3.35-34.807,7.816-48.6S335.7,215.545,335.7,215.545s13.119,1.311,18.188,20.056-3.325,41.771-3.325,41.771l.383,25.1Z" transform="translate(-232.051 -167.862)" fill="#a6e8c4"/>
          <path id="Path_59" data-name="Path 59" d="M328.8,217.7l-.494,2.313-1.052,4.971c-5.49,2.386-13.243-2.708-13.243-2.708l2.289-13.564Z" transform="translate(-221.153 -170.371)" fill="#ffb592"/>
          <path id="Path_60" data-name="Path 60" d="M347.081,303.118c-7.344-1.237-26.448-5.49-37.281-17.571-13.6-15.2-14.355-34.092-14.355-34.092-.3-2.275,1.545-14.578,1.545-14.578s10.808,20.859,18.1,35.946c6.171,12.761,25.93,19.834,31.852,21.7Z" transform="translate(-228.056 -159.913)" fill="#8bc9a6"/>
          <path id="Path_61" data-name="Path 61" d="M328.334,217.7l-.746,3.621a23.294,23.294,0,0,1-5.061-1.076c-3.257-1.026-6.818-4.244-7.277-8.089l.584-3.445Z" transform="translate(-220.691 -170.371)" fill="#c68e75"/>
          <path id="Path_62" data-name="Path 62" d="M345.626,207.887s.48,10.155-5.047,15.431-18.161,3.043-22.069-3.036-5.674-23.835-5.674-23.835,12.052-7.709,19.779-7.833S345.352,197.3,345.626,207.887Z" transform="translate(-221.587 -177.831)" fill="#ffb592"/>
          <path id="Path_63" data-name="Path 63" d="M316.92,201.739s-2.583-2.605-5.418-1.079-1.474,7.117,1.536,9.928,6.9,1.054,6.9,1.054Z" transform="translate(-222.659 -173.537)" fill="#ffb592"/>
          <path id="Path_64" data-name="Path 64" d="M331.7,197.877l1.859,7.063s1.829-1.458,2.586-.463-1.539,3.147-3.656,3.128-2.311-8.75-1.961-10.079S331.434,196.884,331.7,197.877Z" transform="translate(-215.072 -174.796)" fill="#ce7d5d"/>
          <path id="Path_65" data-name="Path 65" d="M337.065,194.55a3.209,3.209,0,0,0-2.493-2.257c-2.1-.476-3.591,2.46-2.844,2.871s1.229-.708,2.567-.729a2.787,2.787,0,0,1,2.147,1.226S337.244,195.817,337.065,194.55Z" transform="translate(-214.647 -176.484)" fill="#00354c"/>
          <path id="Path_66" data-name="Path 66" d="M327.269,194.5a3.209,3.209,0,0,0-2.947-1.619c-2.156.025-2.926,3.224-2.1,3.451s1.033-.972,2.33-1.3a2.583,2.583,0,0,1,2.082.241S327.737,195.7,327.269,194.5Z" transform="translate(-218.224 -176.245)" fill="#00354c"/>
          <path id="Path_67" data-name="Path 67" d="M324.4,198.817c.018,1.139.51,2.055,1.1,2.046s1.053-.941,1.035-2.08-.511-2.057-1.1-2.047S324.384,197.676,324.4,198.817Z" transform="translate(-217.293 -174.816)" fill="#00354c"/>
          <path id="Path_68" data-name="Path 68" d="M332.791,198.6c.015.979.439,1.766.945,1.758s.905-.808.889-1.788-.439-1.766-.945-1.758S332.775,197.624,332.791,198.6Z" transform="translate(-214.18 -174.786)" fill="#00354c"/>
          <path id="Path_69" data-name="Path 69" d="M325.53,194.008s1.441,6.272.117,9.913a9.44,9.44,0,0,1-4.284,5.061s.909,3.567-.37,4.788l-3.964-6.279s-3.044-1.289-4.742,1.4,2.25,10.085,7.479,9.933l-.713,4.233a22.123,22.123,0,0,1-12.818-11.816c-4.018-9.213.886-15.95.886-15.95s-.6-7.535,8.256-11.44,21.969-.8,21.969-.8,6.121-3.261,10.667-.461c6.781,4.174,4.528,12.943-.413,13.563a15.732,15.732,0,0,1-8.721-1.438s.206,2.6-2.81,2.147a5.632,5.632,0,0,1-4.152-2.965S330.623,198.93,325.53,194.008Z" transform="translate(-224.625 -180.491)" fill="#00486e"/>
          <path id="Path_70" data-name="Path 70" d="M314.534,192.473s1.452-9.472-4.094-11.3-10.513,2.29-11.82,10.612,3.517,10.179,8.447,9.345S314.534,192.473,314.534,192.473Z" transform="translate(-226.945 -180.75)" fill="#00486e"/>
          <path id="Path_71" data-name="Path 71" d="M315.541,375.629l-4.765,23.641-3.919,10.4,26.4,5.34-6.294-13.416,6.882-18.031Z" transform="translate(-223.807 -108.404)" fill="#ffb592"/>
          <path id="Path_72" data-name="Path 72" d="M331.2,290.1l-45.836-9.161s-10.639,29.24,10.8,54.1c10.088,11.7,27.482,18.892,43.071,23.232a72.1,72.1,0,0,0-10.545,17.371,118.185,118.185,0,0,0-9,37.47l29.439,10.484L376,357.62a24.823,24.823,0,0,0-5.168-26.643Z" transform="translate(-232.767 -143.555)" fill="#8bc9a6"/>
          <path id="Path_73" data-name="Path 73" d="M313.671,226.384,323.1,259.27l-21.741,5.338s-6.412-14.131-3.92-29.874S310.028,219.23,313.671,226.384Z" transform="translate(-227.517 -165.549)" fill="#8bc9a6" stroke="#00354c" stroke-miterlimit="10" stroke-width="0.75"/>
          <path id="Path_74" data-name="Path 74" d="M435.935,400.7a14.366,14.366,0,0,1-14.813,14.542l-71.435-2.213a14.376,14.376,0,0,1-13.873-15.6l3.956-45.554,4.847-55.9,1.67-19.19a17.73,17.73,0,0,1,18.114-16.2l3.1-14.281,48.3,2.226,2.375,14.727a17.746,17.746,0,0,1,16.334,17.472l.2,16.581.668,56.126Z" transform="translate(-213.078 -156.415)" fill="#fff" stroke="#00354c" stroke-miterlimit="10" stroke-width="1"/>
          <path id="Path_75" data-name="Path 75" d="M434.309,341.379c-9.335,2.014-29.52,4.406-49.551,4.381a156.515,156.515,0,0,1-46.074-7.332l4.847-55.9c10.671,1.348,26.066,3.043,42.759,4.081a195.08,195.08,0,0,0,47.334-2.745Z" transform="translate(-211.992 -142.968)" fill="#7787ff" stroke="#00354c" stroke-miterlimit="10" stroke-width="1"/>
          <path id="Path_76" data-name="Path 76" d="M309.16,396.8s-3.244,7.391-3.889,13.249,11.913,6.434,21.09,6.251,15.4,2.348,23.285-.913-12.938-12.751-19.928-15.077c0,0,.565.791-7.406,1.957S309.16,396.8,309.16,396.8Z" transform="translate(-224.404 -100.544)" fill="#3f3e3e" stroke="#00354c" stroke-linecap="round" stroke-linejoin="round" stroke-width="1"/>
          <path id="Path_77" data-name="Path 77" d="M351.832,245.107l.015.388a8.155,8.155,0,0,0,7.918,7.833l52.815,1.5a8.155,8.155,0,0,0,8.3-6.932h0a8.155,8.155,0,0,0-7.772-9.371l-52.83-1.892A8.155,8.155,0,0,0,351.832,245.107Z" transform="translate(-207.113 -160.005)" fill="#7787ff" stroke="#00354c" stroke-miterlimit="10" stroke-width="1"/>
          <path id="Path_78" data-name="Path 78" d="M394.493,289.673c-1.353-1.067-5.763-.957-6.954-.906l.121-.683c5.359.509,8.025-.625,6.661-1.7-1.205-.95-5.106-.861-6.217-.816h0l-.3.015,0,.01-5.562.443.429-1.205s5.634-1.947,4.1-3.076-4.55-.714-6.652.261-4.632,4.654-4.632,4.654l-1.987-.38L328.609,272.78l-9.356-23.148-16.477,3.92s5.063,21.046,14.026,30.6c7.824,8.344,45.107,12.149,54.456,12.982h.007c1.356.121,2.128.178,2.128.178v-.008l2.8.225c6.567,2.121,9.619.975,9.619.975l.005-.029c5.266.424,7.844-.725,6.464-1.813-1.116-.879-4.458-.9-5.991-.864l.089-.509c5.832.52,8.716-.73,7.214-1.913-1.272-1-5.253-.965-6.714-.915l.159-.9C393.032,292.138,396.013,290.872,394.493,289.673Z" transform="translate(-225.322 -155.178)" fill="#ffb592" stroke="#00354c" stroke-linecap="round" stroke-linejoin="round" stroke-width="1"/>
          <path id="Path_79" data-name="Path 79" d="M314.306,201.611c3.6-.09,7.475,1.571,9.472,2.577,2.527-1.075,10.391-4.238,14.58-3.864,5.037.448,6.646,1.685,6.646,1.685,2,12.61-6.012,17.822-6.012,17.822s-6.118,1.7-11.047-1.927c-3.586-2.64-4.588-8.513-4.868-11.517l-7.789-3.047Z" transform="translate(-221.042 -173.495)" fill="#fff"/>
          <path id="Path_80" data-name="Path 80" d="M301.878,231.672s-4.249,12.351-2.886,38.434c0,0-9.523,19.074-14.344,29.126l66.541,13.131" transform="translate(-232.052 -161.846)" fill="none" stroke="#00354c" stroke-linecap="round" stroke-linejoin="round" stroke-width="1"/>
          <path id="Path_81" data-name="Path 81" d="M313.591,217.6s4.736,4.254,10.1,4.71,6.094-3.451,6.094-3.451" transform="translate(-221.307 -167.068)" fill="none" stroke="#00354c" stroke-linecap="round" stroke-linejoin="round" stroke-width="1"/>
          <path id="Path_82" data-name="Path 82" d="M325.425,215.266c2.575,2.426,6.841,3.579,11.31,3.051a15.494,15.494,0,0,0,3.564-4.679,19.578,19.578,0,0,0,1.788-10.734,15.85,15.85,0,0,0-6.841-1.574c-5.884-.269-12.448,3.654-12.448,3.654S322.159,212.184,325.425,215.266Z" transform="translate(-217.908 -173.114)" fill="#c1e6ff"/>
          <path id="Path_83" data-name="Path 83" d="M325.425,214.274c2.575,2.426,6.841,3.579,11.31,3.051a15.494,15.494,0,0,0,3.564-4.679,11.571,11.571,0,0,1-10.32.086,13.382,13.382,0,0,1-7.181-8.74S322.159,211.191,325.425,214.274Z" transform="translate(-217.908 -172.122)" fill="#a7d2ea"/>
          <path id="Path_84" data-name="Path 84" d="M342.909,194.735s4.946,12.629.6,21.74-23.743,10.627-27.251-2.585l-2.139,12.027" transform="translate(-221.113 -175.558)" fill="none" stroke="#00354c" stroke-linecap="round" stroke-linejoin="round" stroke-width="1"/>
          <line id="Line_6" data-name="Line 6" x1="1.551" y2="6.342" transform="translate(106.098 48.267)" fill="none" stroke="#00354c" stroke-linecap="round" stroke-linejoin="round" stroke-width="1"/>
          <path id="Path_85" data-name="Path 85" d="M321.82,208.677s6.364-3.65,3.628-14.657c0,0,2.26,2.385,4.155,2.136a2.773,2.773,0,0,0,2.231-2.254s2.407,3.243,4.481,3a2.894,2.894,0,0,0,2.481-2.182s5.732,2.91,9.353,1.718,6.341-8.488,1.05-12.921-11.937-.461-11.937-.461-8.943-2.3-16.715-.709-11.658,5.331-12.983,8.938-.8,5.33-.8,5.33-2.734,2.641-1.635,10.157c1.768,12.068,13.705,15.965,13.705,15.965" transform="translate(-224.543 -180.502)" fill="none" stroke="#00354c" stroke-linecap="round" stroke-linejoin="round" stroke-width="1"/>
          <path id="Path_86" data-name="Path 86" d="M303.5,223.465s7.348-6.132,14.813-7.381" transform="translate(-225.052 -167.633)" fill="none" stroke="#00354c" stroke-linecap="round" stroke-linejoin="round" stroke-width="1"/>
          <path id="Path_87" data-name="Path 87" d="M329.128,219.335s10.542,12.178,9.818,25.553-4.891,31.773-4.891,31.773V288.61" transform="translate(-215.539 -166.426)" fill="none" stroke="#00354c" stroke-linecap="round" stroke-linejoin="round" stroke-width="1"/>
          <line id="Line_7" data-name="Line 7" x1="3.59" y2="3.22" transform="translate(97.511 119.939)" fill="none" stroke="#00354c" stroke-linecap="round" stroke-linejoin="round" stroke-width="1"/>
          <path id="Path_88" data-name="Path 88" d="M332.721,261.141a27.057,27.057,0,0,0,14.955,8.259" transform="translate(-214.205 -150.906)" fill="none" stroke="#00354c" stroke-linecap="round" stroke-linejoin="round" stroke-width="1"/>
          <line id="Line_8" data-name="Line 8" y1="4.151" x2="4.881" transform="translate(127.631 100.99)" fill="none" stroke="#00354c" stroke-linecap="round" stroke-linejoin="round" stroke-width="1"/>
          <path id="Path_89" data-name="Path 89" d="M285.407,280.942s-11.082,33.92,10.8,54.1,44.624,23.232,44.624,23.232" transform="translate(-232.812 -143.555)" fill="none" stroke="#00354c" stroke-linecap="round" stroke-linejoin="round" stroke-width="1"/>
          <path id="Path_90" data-name="Path 90" d="M338.769,332.958a43.752,43.752,0,0,0-18.5,20.6c-6.283,14.253-10.593,40.244-10.593,40.244l29.439,10.484,10.8-26.524" transform="translate(-222.76 -124.245)" fill="none" stroke="#00354c" stroke-linecap="round" stroke-linejoin="round" stroke-width="1"/>
          <path id="Path_91" data-name="Path 91" d="M307.581,196.995s.354,1.414,2.209,0,1.368-3.532.662-4.019a3.96,3.96,0,0,0-2.209-.265s2.3-6.227,10.6-7.949,17.267,0,17.267,0a12.771,12.771,0,0,1,6.845-1.722c3.532.31,6.8,2.518,6.36,6.712s-5.433,4.2-7.994,3.136-3.8-1.987-4.238-1.325.618,2.87-1.5,2.605-3.621-3.224-4.681-3.224-.927,2.561-2.208,2.341-1.414-2.3-4.417-1.9-2.341,2.076-1.545,4.946a15.278,15.278,0,0,1-.883,8.655c-.708,1.237-5.079,2.873-5.079,2.873l-.6-.948s-3.1-1.235-4.609,1.2,1.85,9.615,6.531,10.133l-1.325,1.931s-7.243-3.77-8.788-10.65S306.963,199.027,307.581,196.995Z" transform="translate(-223.766 -179.912)" fill="#00354c"/>
          <path id="Path_92" data-name="Path 92" d="M306.145,198.524s-4.824.6-5.442-5.713,3.136-10.2,6.4-10.423,4.945,4.285,4.945,4.285-3.266,3.8-3.841,6.623-.276,3.487-.276,3.487S307.748,198.678,306.145,198.524Z" transform="translate(-226.117 -180.144)" fill="#00354c"/>
          <path id="Path_93" data-name="Path 93" d="M303.327,225.342s-2.651,12.012,0,22.346S313.28,261,313.28,261l-11.716,2.963s-5.584-17.825-4.21-25.815c0,0,.86-7.9,3.094-11.856a8.1,8.1,0,0,1,5.884-4.252A6.273,6.273,0,0,0,303.327,225.342Z" transform="translate(-227.415 -165.421)" fill="#6aaa84"/>
          <path id="Path_94" data-name="Path 94" d="M319.5,247.12h20.222s-.664,3.31-8.48,3.445S319.5,247.12,319.5,247.12Z" transform="translate(-219.115 -156.111)" fill="#8bc9a6"/>
          <line id="Line_9" data-name="Line 9" x2="28.957" y2="30.708" transform="translate(99.306 146.605)" fill="none" stroke="#00354c" stroke-linecap="round" stroke-linejoin="round" stroke-width="1"/>
          <path id="Path_95" data-name="Path 95" d="M327.383,203.843s3.643-1.788,9.936-.8" transform="translate(-216.187 -172.584)" fill="none" stroke="#00354c" stroke-linecap="round" stroke-linejoin="round" stroke-width="1"/>
          <path id="Path_96" data-name="Path 96" d="M288.319,315.281l-1.6,25.378,12.931,8.979" transform="translate(-231.283 -130.807)" fill="none" stroke="#00354c" stroke-miterlimit="10" stroke-width="1"/>
          <path id="Path_97" data-name="Path 97" d="M259.128,371.139l17.748,17.387s37.7-22.34,47.7-32.965,13.737-20.289,13.737-20.289" transform="translate(-241.526 -123.385)" fill="none" stroke="#00354c" stroke-miterlimit="10" stroke-width="1"/>
          <path id="Path_98" data-name="Path 98" d="M314.815,378.51l-4.5,19.69-2.213,5.392s2.8,5.178,10.183,5.555,11.481-1.656,11.481-1.656l-2.981-7.716,5.5-14.414" transform="translate(-223.345 -107.334)" fill="none" stroke="#00354c" stroke-linecap="round" stroke-linejoin="round" stroke-width="1"/>
          <path id="Path_99" data-name="Path 99" d="M342.9,330.454s-6.094,30.636,0,39.961,67.832,9.324,77.106,5.88-2.686-8.8-34.067-9.437-36.476-2.23-37.108-12.428S349.3,320.677,342.9,330.454Z" transform="translate(-211.433 -126.038)" fill="#ececec"/>
          <path id="Path_100" data-name="Path 100" d="M362.5,257.3a6.432,6.432,0,0,0,5.64,7.683c9.052.934,24.557,2.878,32.856,5.884,12.189,4.417,12.189,20.138,13.778,21.9s6.183,1.253,6.712-1.14S420.6,276.7,415.48,269.81a19.679,19.679,0,0,0-8.615-6.668,6.539,6.539,0,0,1-4.019-5.163l-.049-.333a6.438,6.438,0,0,0-6.368-5.5H368.808A6.438,6.438,0,0,0,362.5,257.3Z" transform="translate(-203.199 -154.246)" fill="#ececec"/>
          <path id="Path_101" data-name="Path 101" d="M355.188,243.2s1.06,4.946,13.514,6.272,40.1,2.826,43.9,0-15.455-2.561-28.263-3.621a166.575,166.575,0,0,1-25.767-4.417C356.689,240.992,354.835,240.286,355.188,243.2Z" transform="translate(-205.881 -158.374)" fill="#5668d1"/>
          <path id="Path_102" data-name="Path 102" d="M355.534,288.469s-4.546,27.6,7.619,36.878,64.661,4.75,65.7,8.6S403.934,344.4,374.522,341.1s-30.764-8.687-31.545-10.763,1.074-44.938,3.458-44.838S353.767,285.77,355.534,288.469Z" transform="translate(-210.465 -141.863)" fill="#5668d1"/>
          <text id="VACCINE" transform="translate(139.121 173.33)" fill="#fff" font-size="19" font-family="SegoeUI, Segoe UI"><tspan x="0" y="0">VACCINE</tspan></text>
        </g>
        <g id="vector-vaccine-man" transform="translate(0 201.952)">
          <path id="Path_103" data-name="Path 103" d="M159.231,322.21l-54.952-5.815,1.308,2.908,51.318,7.414Z" transform="translate(-104.279 -205.602)" fill="#fff" stroke="#00354c" stroke-miterlimit="10" stroke-width="1"/>
          <path id="Path_104" data-name="Path 104" d="M190.609,351.687l-6.077.777s-7.661.821-11.169-.181-3.637-3.583-3.637-3.583a6.779,6.779,0,0,1-2.278-2.615,3.61,3.61,0,0,1-.388-2.585l-.04-2.246,21.417,3.669Z" transform="translate(-81.004 -196.372)" fill="#ffb592" stroke="#00354c" stroke-miterlimit="10" stroke-width="1"/>
          <path id="Path_105" data-name="Path 105" d="M224.678,452.918s-32.656,11.191-26.831,16.486c1.778,1.617,46.73.042,46.73.042,2.662-3.226-2.6-16.529-2.6-16.529Z" transform="translate(-69.801 -154.919)" fill="#3f3e3e" stroke="#00354c" stroke-miterlimit="10" stroke-width="1"/>
          <path id="Path_106" data-name="Path 106" d="M355.444,470.123l-19.339,17.546L328.8,494.3s-49.089-25.757-62.048-58.773c-4.6-11.723-7.592-25.09-9.533-37.466a309.137,309.137,0,0,1-3.6-41.683s69.442-39.161,75.366-24.409a45.552,45.552,0,0,1,2.992,12.711,72.272,72.272,0,0,1-1.224,20.477c-5.082,26.771-21.441,52.07-21.441,52.07Z" transform="translate(-48.839 -201.054)" fill="#3e53ad"/>
          <path id="Path_107" data-name="Path 107" d="M244.734,371.893c-9.6,19.772-51.761,25-51.761,25l-2.559-7.566-9.064-26.746,40.706-13.664,14.528-39.642,7.964-21.751,2.238-6.109s.111,1.039.284,2.893C248.357,297.775,253.167,354.507,244.734,371.893Z" transform="translate(-75.667 -218.587)" fill="#d9d9d9"/>
          <path id="Path_108" data-name="Path 108" d="M335.131,483.328l-7.309,6.629s-49.089-25.757-62.048-58.773c-4.6-11.723-7.593-25.09-9.533-37.466a75.113,75.113,0,0,1,11.908-22.764L331,340.337a72.273,72.273,0,0,1-1.224,20.477c-14.022,14.863-38.134,41.621-45.207,56.954C275.889,436.576,321.554,473.04,335.131,483.328Z" transform="translate(-47.865 -196.713)" fill="#314891"/>
          <path id="Path_109" data-name="Path 109" d="M183.66,347.425l30.373,5.846s2.73-1.087,3.187-2.578L182.534,344.1Z" transform="translate(-75.227 -195.316)" fill="#c5c5c5"/>
          <path id="Path_110" data-name="Path 110" d="M242.28,371.11c-9.6,19.772-51.761,25-51.761,25l-2.559-7.566c7.085-2.449,31.308-12.107,41.151-33.128,7.667-16.371,6.616-35.71,5.02-46.925l7.964-21.751,2.522-3.216C245.9,296.992,250.713,353.724,242.28,371.11Z" transform="translate(-73.213 -217.804)" fill="#c5c5c5"/>
          <path id="Path_111" data-name="Path 111" d="M316.574,339.2l-13.936,8.234L258.8,373.351a55.352,55.352,0,0,1-5.318-6.775c-12.278-18.017-26.7-53.814-24.346-69.049,2.708-17.534,10.523-22.937,10.523-22.937l10.1-5.651s.544-.1,1.533-.173a41.708,41.708,0,0,1,9.83.469,40.213,40.213,0,0,1,21.639,10.882C297.433,294.362,316.574,339.2,316.574,339.2Z" transform="translate(-58.02 -223.322)" fill="#c1e6ff"/>
          <path id="Path_112" data-name="Path 112" d="M249.242,272.108l-8.584,9.778-2.483-2.55-5.058-5.2,9.924-10.254,1.815,2.408Z" transform="translate(-56.449 -225.096)" fill="#ffb592"/>
          <path id="Path_113" data-name="Path 113" d="M303.867,342.228l-6.567,5.205-43.834,25.918a55.36,55.36,0,0,1-5.318-6.775c2.326-3.6,5.1-10.35,6.38-22.691,2.437-23.247-11.265-71.026-11.265-71.026l2.7-4.092a41.708,41.708,0,0,1,9.83.469Z" transform="translate(-52.682 -223.322)" fill="#a7d2ea"/>
          <path id="Path_114" data-name="Path 114" d="M244.856,266.291c-1.148,3.864-3.472,10.4-6.682,13.046l-5.057-5.2,9.924-10.254Z" transform="translate(-56.449 -225.096)" fill="#c68e75"/>
          <path id="Path_115" data-name="Path 115" d="M216.531,264s-.358,11.447,5.961,17.289,20.51,3.1,24.8-3.815,5.962-26.948,5.962-26.948-13.712-8.466-22.417-8.466S216.65,252.073,216.531,264Z" transform="translate(-62.608 -233.198)" fill="#ffb592"/>
          <path id="Path_116" data-name="Path 116" d="M241.836,256.637s2.862-2.981,6.081-1.311,1.788,7.987-1.551,11.207-7.75,1.312-7.75,1.312Z" transform="translate(-54.408 -228.461)" fill="#ffb592"/>
          <path id="Path_117" data-name="Path 117" d="M223.9,252.566l-1.966,7.989s-2.087-1.61-2.922-.477,1.789,3.517,4.174,3.458,2.444-9.9,2.027-11.387S224.172,251.443,223.9,252.566Z" transform="translate(-61.746 -229.757)" fill="#ce7d5d"/>
          <path id="Path_118" data-name="Path 118" d="M228.723,248.68a3.614,3.614,0,0,1,3.29-1.877c2.428-.012,3.353,3.578,2.43,3.849s-1.179-1.076-2.646-1.425a2.907,2.907,0,0,0-2.339.309S228.217,250.031,228.723,248.68Z" transform="translate(-58.126 -231.437)" fill="#00354c"/>
          <path id="Path_119" data-name="Path 119" d="M257.9,264.311a4.079,4.079,0,0,0-1.089-1.545,3.468,3.468,0,0,0-2.955-.791c-3.066.481-4.167,5.612-4.167,5.612h-2.622v-3.128a7.762,7.762,0,0,1-4.352-5.9c-.457-4.2,1.113-10.66,1.113-10.66-2.461-1.533-16.137-2.943-19.2-1.3a7.783,7.783,0,0,0-3.277,3.524,7.214,7.214,0,0,0-.544,1.471c-1.743-1.311-.853-4.217-.853-4.217-1.644-.458-4.7-2.324-3.982-3.672s3.314-1.608,3.314-1.608c-1.076-.8-2.869-4.291,2.213-4.118s18.264-3.759,27.735-1.879,9.312,12.253,9.312,12.253c1.879.8,2.053,1.707,2.324,3.8C261.128,254.258,257.9,264.311,257.9,264.311Z" transform="translate(-62.855 -235.597)" fill="#00486e"/>
          <path id="Path_120" data-name="Path 120" d="M231.006,253.49c0,1.285-.538,2.326-1.2,2.326s-1.2-1.041-1.2-2.326.539-2.324,1.2-2.324S231.006,252.207,231.006,253.49Z" transform="translate(-58.126 -229.817)" fill="#00354c"/>
          <ellipse id="Ellipse_3" data-name="Ellipse 3" cx="1.033" cy="1.997" rx="1.033" ry="1.997" transform="translate(157.857 21.677)" fill="#00354c"/>
          <path id="Path_121" data-name="Path 121" d="M251.211,256.347l-1.076,1.966-8.717,3.573c-.26,3.387-1.274,10.016-5.268,13.057-5.49,4.18-12.414,2.375-12.414,2.375a9.388,9.388,0,0,1-1.027-.8c-2.213-1.9-7.184-7.406-6.22-17.682.037-.481.086-.976.16-1.484,0,0,1.794-1.422,7.457-2.016,4.712-.494,13.626,2.919,16.484,4.093C242.827,258.251,247.155,256.31,251.211,256.347Z" transform="translate(-62.668 -228.288)" fill="#fff"/>
          <path id="Path_122" data-name="Path 122" d="M166.2,318.675v18.152l-7.654-1.805-18.214-4.3.767-7.728.581-5.775Z" transform="translate(-90.896 -205.297)" fill="#7787ff" stroke="#00354c" stroke-miterlimit="10" stroke-width="1"/>
          <path id="Path_123" data-name="Path 123" d="M239.7,274.339s-3.484,11.42-.038,47.764c2.6,27.4,31.4,64.312,31.4,64.312l-28.784,9.538s-19.31-74.228-17.361-94.673c1.951-20.464,13.468-28.294,13.468-28.294Z" transform="translate(-59.546 -221.716)" fill="#fff"/>
          <path id="Path_124" data-name="Path 124" d="M340.141,368.105c-3.5,26.1-85.27,65.028-85.27,65.028l-5.824,70.358H209.9s-.173-.469-.47-1.348c-2.263-6.565-11.883-36.069-11.746-62.48.037-10.537,1.656-20.6,5.9-28.5.52-.964,1.064-1.929,1.632-2.881,11.55-19.389,31.754-34.116,43.637-41.633,5.7-3.61,9.5-5.552,9.5-5.552l22.85-14.01,46.419-28.453.7-.432s.7,1.087,1.769,3.054C334.019,328.486,342.9,347.591,340.141,368.105Z" transform="translate(-69.605 -204.932)" fill="#5668d1"/>
          <path id="Path_125" data-name="Path 125" d="M331.386,368.915c-3.5,26.1-85.27,65.028-85.27,65.028L240.292,504.3h-19.03a219.509,219.509,0,0,0,13.527-36.032c7.369-26.152-4.328-34.982-3.08-39.223s41.041-18.584,65.845-37.725c19.858-15.333-11.723-35.847-25.114-43.427-3.338-1.88-5.552-2.967-5.552-2.967l47.557-28.91a21.835,21.835,0,0,1,4.414,3.424c.767.743,1.608,1.609,2.474,2.622C325.265,329.3,334.144,348.4,331.386,368.915Z" transform="translate(-60.85 -205.742)" fill="#3e53ad"/>
          <path id="Path_126" data-name="Path 126" d="M254.153,355.2s-37.843,22.325-46.338,49.949c-6.775,22.01-.3,67.942,1.613,83.707-2.263-6.565-11.883-36.069-11.746-62.48.037-10.537,1.656-20.6,5.9-28.5.52-.964,1.064-1.929,1.632-2.881,11.55-19.389,30.783-33.5,42.666-41.015Z" transform="translate(-69.605 -191.648)" fill="#6c82e0"/>
          <path id="Path_127" data-name="Path 127" d="M360.1,341.688l-31.049,32.286-13.664,14.207a64.6,64.6,0,0,1-10.4-6.257c-41.771-30.591-60.9-112.857-60.9-112.857a30.606,30.606,0,0,1,14.318,0c10.486,2.374,21.12,9.644,30.159,20.39,8.731,10.373,37.047,29.775,55.323,41.794C353.34,337.459,360.1,341.688,360.1,341.688Z" transform="translate(-52.374 -223.487)" fill="#fff"/>
          <path id="Path_128" data-name="Path 128" d="M340.017,331.021c-1.076,2.275-2.363,5.069-3.871,8.495-4.067,9.224-8.049,23-10.967,34.227l-13.664,14.207a64.6,64.6,0,0,1-10.4-6.257c.9-9.089.9-27.71-8.347-53.714-13.453-37.789-38.234-59.143-38.234-59.143,10.486,2.374,21.12,9.644,30.159,20.39C293.426,299.6,321.742,319,340.017,331.021Z" transform="translate(-48.498 -223.257)" fill="#d9d9d9"/>
          <path id="Path_129" data-name="Path 129" d="M271.94,341.023c-.012-.012-.012-.012-.012-.025a45.074,45.074,0,0,1-4.133-6.116c-2.25-4.192-4.72-8.784-8.009-15.474-.012-.012-.618-1.06-.618-1.06a225.005,225.005,0,0,1-10.35-25.871c-6.565-19.2-5.489-24.669-5.489-24.669l7.876.569,13.231,20.154-7.506,11.326,13,10.017,1.917,29.541Z" transform="translate(-52.683 -223.638)" fill="#ececec"/>
          <path id="Path_130" data-name="Path 130" d="M171.646,311.623,311.454,326.15l-7.464,51.9L165.847,350.715a19.777,19.777,0,0,1-15.854-22.429h0A19.775,19.775,0,0,1,171.646,311.623Z" transform="translate(-87.394 -207.415)" fill="#fff" stroke="#00354c" stroke-linecap="round" stroke-linejoin="round" stroke-width="0.75"/>
          <path id="Path_131" data-name="Path 131" d="M263.411,337.1l57.92,9.4-2.51,6.628L260.81,347.14Z" transform="translate(-46.168 -197.915)" fill="#fff"/>
          <path id="Path_132" data-name="Path 132" d="M324.512,346.936,315.93,365.3l-22.418-9.892-4.056-1.794,10.981-42.2s-37.195-27.932-45.9-42.573c0,0,3.03.2,7.976.9,10.955,1.57,31.308,5.651,48.891,15.679a38.881,38.881,0,0,1,13.058,11.7,36.565,36.565,0,0,1,5.922,14.974C332.388,324.146,329.148,337.031,324.512,346.936Z" transform="translate(-48.498 -223.257)" fill="#fff"/>
          <path id="Path_133" data-name="Path 133" d="M286.638,332.276l-1.311,4.063s-7.919,1.97-9.265,5.068a5.426,5.426,0,0,0,.9,5.569s-1.308,6.978,1.092,8.8,4.942-.654,4.942-.654a4.642,4.642,0,0,0,3.926,1.322c2.762-.158,3.468-1.831,3.468-1.831a5.208,5.208,0,0,0,3.728-.581c1.526-1.09,3.442-9.434,2.18-13.737l1.216-3.21Z" transform="translate(-40.666 -199.706)" fill="#ffb592" stroke="#00354c" stroke-miterlimit="10" stroke-width="1"/>
          <path id="Path_134" data-name="Path 134" d="M318.085,447.714l-3.033,12.5s-11.351,4.945-13.024,8.517,5.355,5.356,16.057,4.945,15.372-10.028,19.081-17.308,4.945-10.027,4.945-10.851-10.626-9.958-10.626-9.958Z" transform="translate(-30.958 -161.363)" fill="#3f3e3e" stroke="#00354c" stroke-miterlimit="10" stroke-width="1"/>
          <path id="Path_135" data-name="Path 135" d="M301.628,347.668l4.854-11.716,4.4,1.054-5.858,26.946h-4.218Z" transform="translate(-31.32 -198.341)" fill="#fff"/>
          <path id="Path_136" data-name="Path 136" d="M305.346,311.966l-11.834,43.439-4.056-1.794,10.981-42.2s-37.195-27.932-45.9-42.573c0,0,3.03.2,7.976.9,2.275,4.488,5.589,12.316,16.581,20.674,19.784,15.012,30.555,16.075,35.686,15.89S305.346,311.966,305.346,311.966Z" transform="translate(-48.498 -223.257)" fill="#ececec"/>
          <path id="Path_137" data-name="Path 137" d="M257.944,254.358c-.606,3.043-1.471,6.863-1.707,7.915a3.468,3.468,0,0,0-2.955-.791c-3.066.481-4.167,5.612-4.167,5.612h-1.05l-.5-5.639a8.974,8.974,0,0,1-3.846-7.1c-.259-4.958.85-6.352.85-6.352-2.461-1.534-17.456-3.541-20.522-1.9a7.783,7.783,0,0,0-3.277,3.524c-.123.1-.2.148-.2.148a4.342,4.342,0,0,1,0-3.166,4.022,4.022,0,0,1-3.08-1.99c-.8-1.769,4.328-1.6,4.328-1.6s-2.448-1.718-1.693-3.3,4.786-.137,11.092-.618,10.955-2.572,16.075-2.127,7.864,5.218,8.84,8a1.844,1.844,0,0,0-2.782,1.582c-.444,2.745,2.6,4.835,4.588,3.142C257.944,249.71,258.649,250.785,257.944,254.358Z" transform="translate(-62.28 -235.104)" fill="#00354c"/>
          <path id="Path_138" data-name="Path 138" d="M283.71,334l9.366,5.062,1.07-2.23-9.962-4.341Z" transform="translate(-37.667 -199.625)" fill="#c68e75"/>
          <path id="Path_139" data-name="Path 139" d="M246.669,256.594a3.133,3.133,0,0,0-2.854,1.06,6.025,6.025,0,0,0-1.475,2.959,1.538,1.538,0,0,1,1.237,1.214c.2,1.061-1.567,1.877-1.567,1.877s-.389,1.326.92,1.237,2.413-2.45,2.171-3.8a2.4,2.4,0,0,0-1.523-1.766S247.2,256.969,246.669,256.594Z" transform="translate(-53.168 -227.816)" fill="#c68e75"/>
          <path id="Path_140" data-name="Path 140" d="M312.21,304.434a8.907,8.907,0,0,1-8.717-8.7,8.5,8.5,0,0,1,2.795-6.269A36.565,36.565,0,0,1,312.21,304.434Z" transform="translate(-30.323 -215.601)" fill="#ececec"/>
          <path id="Path_141" data-name="Path 141" d="M235.853,272.548c-2.992,2.782-7.952,4.1-13.145,3.5a17.8,17.8,0,0,1-4.142-5.366,22.217,22.217,0,0,1-2.077-12.316,18.607,18.607,0,0,1,7.952-1.8c6.837-.31,14.467,4.192,14.467,4.192S239.649,269.011,235.853,272.548Z" transform="translate(-62.668 -227.82)" fill="#c1e6ff"/>
          <path id="Path_142" data-name="Path 142" d="M235.257,271.409c-2.992,2.782-7.952,4.1-13.145,3.5a17.8,17.8,0,0,1-4.142-5.366,13.612,13.612,0,0,0,11.994.1c7.235-3.709,8.347-10.028,8.347-10.028S239.053,267.872,235.257,271.409Z" transform="translate(-62.072 -226.681)" fill="#a7d2ea"/>
          <path id="Path_143" data-name="Path 143" d="M295.864,393.243l-6.028,10.142s7.1.942,10.97-4.474Z" transform="translate(-35.393 -177.073)" fill="#314891"/>
          <path id="Path_144" data-name="Path 144" d="M235.336,271.9l-6.265,24.427,5.548,8.67L231.4,316.728l4.921,19.675,5.027.537s-5.821-31.111-4.784-45.43,1.543-16.766,1.543-16.766Z" transform="translate(-57.951 -222.12)" fill="#ececec"/>
          <path id="Path_145" data-name="Path 145" d="M238.863,322.893,234.782,348.5l-1.508,9.5-66.8-12.748a15.112,15.112,0,0,1-12.142-16.866v-.037a15.124,15.124,0,0,1,16.644-12.972Z" transform="translate(-85.747 -206.015)" fill="#b6bfff"/>
          <path id="Path_146" data-name="Path 146" d="M282.334,326.754l-3.561,25.151c-12.9.273-33.782-.668-65.808-5.466l4.081-25.608Z" transform="translate(-63.93 -203.954)" fill="#ececec"/>
          <path id="Path_147" data-name="Path 147" d="M279.182,344.973l-2.511,17.768L211.865,349l1.508-9.5C245.4,344.305,266.285,345.246,279.182,344.973Z" transform="translate(-64.339 -197.021)" fill="#d9d9d9"/>
          <path id="Path_148" data-name="Path 148" d="M234.782,344.963l-1.508,9.5-66.8-12.748a15.112,15.112,0,0,1-12.142-16.866v-.037c12.428,5.279,36.515,13.379,77.567,19.71C232.879,344.667,233.83,344.815,234.782,344.963Z" transform="translate(-85.747 -202.478)" fill="#a2afed"/>
          <line id="Line_10" data-name="Line 10" x1="1.855" y2="13.747" transform="translate(83.362 116.878)" fill="none" stroke="#7787ff" stroke-linecap="round" stroke-linejoin="round" stroke-width="1"/>
          <line id="Line_11" data-name="Line 11" x1="1.855" y2="13.747" transform="translate(94.662 118.691)" fill="none" stroke="#7787ff" stroke-linecap="round" stroke-linejoin="round" stroke-width="1"/>
          <line id="Line_12" data-name="Line 12" x1="1.855" y2="13.747" transform="translate(105.683 120.569)" fill="none" stroke="#7787ff" stroke-linecap="round" stroke-linejoin="round" stroke-width="1"/>
          <line id="Line_13" data-name="Line 13" x1="1.855" y2="13.747" transform="translate(116.703 122.447)" fill="none" stroke="#7787ff" stroke-linecap="round" stroke-linejoin="round" stroke-width="1"/>
          <line id="Line_14" data-name="Line 14" x1="1.855" y2="13.747" transform="translate(127.724 124.325)" fill="none" stroke="#7787ff" stroke-linecap="round" stroke-linejoin="round" stroke-width="1"/>
          <line id="Line_15" data-name="Line 15" x1="1.855" y2="13.747" transform="translate(138.744 126.204)" fill="none" stroke="#7787ff" stroke-linecap="round" stroke-linejoin="round" stroke-width="1"/>
          <path id="Path_149" data-name="Path 149" d="M254.536,268.837a149.325,149.325,0,0,0,21.66,22.849c12.711,10.681,24.241,19.724,24.241,19.724l-10.981,42.2L315.93,365.3" transform="translate(-48.498 -223.257)" fill="none" stroke="#00354c" stroke-linecap="round" stroke-linejoin="round" stroke-width="0.75"/>
          <path id="Path_150" data-name="Path 150" d="M271.91,341c-23.625-32.9-28.6-73.19-28.6-73.19l7.876.569,13.231,20.154-7.506,11.326,13,10.017,1.163,17.856" transform="translate(-52.665 -223.638)" fill="none" stroke="#00354c" stroke-linecap="round" stroke-linejoin="round" stroke-width="0.75"/>
          <path id="Path_151" data-name="Path 151" d="M281.8,376.331l7.464-51.9-79.719-8.284" transform="translate(-65.201 -205.694)" fill="none" stroke="#00354c" stroke-linecap="round" stroke-linejoin="round" stroke-width="0.75"/>
          <line id="Line_16" data-name="Line 16" x2="14.354" y2="1.965" transform="translate(221.04 139.737)" fill="none" stroke="#00354c" stroke-linecap="round" stroke-linejoin="round" stroke-width="0.75"/>
          <path id="Path_152" data-name="Path 152" d="M290.968,343.817l14.907,2.419,4.261-10.284,4.4,1.054-5.858,26.946" transform="translate(-34.973 -198.341)" fill="none" stroke="#00354c" stroke-linecap="round" stroke-linejoin="round" stroke-width="0.75"/>
          <path id="Path_153" data-name="Path 153" d="M236.066,273.973s-2.592,13.3-.98,32.727,4.222,29.469,4.222,29.469" transform="translate(-55.914 -221.35)" fill="none" stroke="#00354c" stroke-linecap="round" stroke-linejoin="round" stroke-width="0.75"/>
          <path id="Path_154" data-name="Path 154" d="M235.336,271.9l-6.265,24.427,5.548,8.67-2.732,12.994,4.431,18.412" transform="translate(-57.951 -222.12)" fill="none" stroke="#00354c" stroke-linecap="round" stroke-linejoin="round" stroke-width="0.75"/>
          <path id="Path_155" data-name="Path 155" d="M290.425,300.841s2.466-3.872,11.869-4.189" transform="translate(-35.174 -212.931)" fill="none" stroke="#00354c" stroke-linecap="round" stroke-linejoin="round" stroke-width="0.75"/>
          <path id="Path_156" data-name="Path 156" d="M311.467,309.808l25.239,16.44-29.585,30.763" transform="translate(-28.976 -208.047)" fill="none" stroke="#00354c" stroke-linecap="round" stroke-linejoin="round" stroke-width="0.75"/>
          <path id="Path_157" data-name="Path 157" d="M254.536,268.837s65.02,6.239,73.616,35.185c5.515,18.568-1.51,39.8-1.51,39.8" transform="translate(-48.498 -223.257)" fill="none" stroke="#00354c" stroke-linecap="round" stroke-linejoin="round" stroke-width="0.75"/>
          <path id="Path_158" data-name="Path 158" d="M182.914,344.73l9.478,28.66s34.352-5.056,46.618-18.095" transform="translate(-75.086 -195.082)" fill="none" stroke="#00354c" stroke-linecap="round" stroke-linejoin="round" stroke-width="0.75"/>
          <path id="Path_159" data-name="Path 159" d="M228.44,333.862s-6.505-27.252-1.983-42.012,9.356-17.225,9.356-17.225" transform="translate(-59.515 -221.108)" fill="none" stroke="#00354c" stroke-linecap="round" stroke-linejoin="round" stroke-width="0.75"/>
          <line id="Line_17" data-name="Line 17" y1="31.857" x2="11.673" transform="translate(153.696 79.566)" fill="none" stroke="#00354c" stroke-linecap="round" stroke-linejoin="round" stroke-width="0.75"/>
          <path id="Path_160" data-name="Path 160" d="M218.588,249.059s-2.79,8.684-2.2,16.456,6.024,18.844,18.586,16.355,14.321-11.355,14.321-11.355" transform="translate(-62.69 -230.599)" fill="none" stroke="#00354c" stroke-linecap="round" stroke-linejoin="round" stroke-width="0.75"/>
          <path id="Path_161" data-name="Path 161" d="M247.6,256.537s1.034,7.333-3.981,10.073" transform="translate(-52.551 -227.823)" fill="none" stroke="#00354c" stroke-linecap="round" stroke-linejoin="round" stroke-width="0.75"/>
          <path id="Path_162" data-name="Path 162" d="M217.686,259.195s1.647-1.115,6.814-.982a29.016,29.016,0,0,1,8.8,1.523" transform="translate(-62.178 -227.205)" fill="none" stroke="#00354c" stroke-linecap="round" stroke-linejoin="round" stroke-width="0.75"/>
          <line id="Line_18" data-name="Line 18" x2="7.84" y2="1.827" transform="translate(177.426 226.375)" fill="none" stroke="#00354c" stroke-linecap="round" stroke-linejoin="round" stroke-width="0.75"/>
          <path id="Path_163" data-name="Path 163" d="M247.515,354.433s-35.774,19.9-47.209,51.893c-10.478,29.309,9.736,83.714,9.736,83.714H249.19l5.824-70.358s81.782-42.395,84.223-62.59" transform="translate(-69.748 -191.48)" fill="none" stroke="#00354c" stroke-linecap="round" stroke-linejoin="round" stroke-width="0.75"/>
          <path id="Path_164" data-name="Path 164" d="M258.69,391.862s5.248,22.42,15.367,36.139c13.047,17.686,52.856,42.828,52.856,42.828l26.647-24.175" transform="translate(-46.956 -177.585)" fill="none" stroke="#00354c" stroke-linecap="round" stroke-linejoin="round" stroke-width="0.75"/>
          <path id="Path_165" data-name="Path 165" d="M289.192,403.448s5.695-5.684,6.911-10.2" transform="translate(-35.632 -177.073)" fill="none" stroke="#00354c" stroke-linecap="round" stroke-linejoin="round" stroke-width="0.75"/>
          <path id="Path_166" data-name="Path 166" d="M318.354,456.782a36.269,36.269,0,0,0-6.895-3.243" transform="translate(-27.366 -154.689)" fill="#3f3e3e" stroke="#00354c" stroke-miterlimit="10" stroke-width="1"/>
          <path id="Path_167" data-name="Path 167" d="M233.64,272.115l6.824,7.012,6.858-7.811" transform="translate(-56.255 -222.336)" fill="none" stroke="#00354c" stroke-linecap="round" stroke-linejoin="round" stroke-width="0.75"/>
          <path id="Path_168" data-name="Path 168" d="M217.709,248.907a3.616,3.616,0,0,1,2.767-2.588c2.361-.573,4.089,2.707,3.255,3.183s-1.4-.775-2.9-.775a3.133,3.133,0,0,0-2.4,1.419S217.531,250.337,217.709,248.907Z" transform="translate(-62.178 -231.641)" fill="#00354c"/>
        </g>
      </g>
      <path id="vector-left-top-plus" d="M184.13,144.087H171.7V132.254H160.968v11.833H148.534v10.727h12.434V167.85H171.7V154.815H184.13Z" transform="translate(-87.849 -72.01)" fill="#7787ff"/>
      <path id="vector-left-bottom-plus" d="M186.471,379.438H171.017V364.73H157.683v14.708H142.228v13.334h15.455v16.2h13.334v-16.2h15.455Z" transform="translate(-90.191 14.294)" fill="#7787ff"/>
      <path id="vector-right-top-plus" d="M374.578,134.085H353.235V113.774H334.823v20.311H313.48V152.5h21.342v22.373h18.413V152.5h21.342Z" transform="translate(-26.615 -78.87)" fill="#7787ff"/>
    </g>
  </g>
</svg>
